<?xml version="1.0" encoding="UTF-8"?>
<svg width="1200pt" height="1200pt" version="1.1" viewBox="0 0 1200 1200" xmlns="http://www.w3.org/2000/svg">
 <path d="m505.69 783.94c-4.8281 1.0312-10.078 0.09375-14.531-2.9531-34.219-23.719-63.141-18.094-89.906 6.5625-9.2812 8.5781-15.844 17.156-18.984 22.406-5.3438 8.8594-16.875 11.719-25.734 6.4219-8.9062-5.3438-11.766-16.875-6.4219-25.734 4.7812-8.0625 13.406-19.359 25.688-30.656 34.5-31.875 76.406-42.609 121.03-19.406 4.0781-4.9219 8.9531-10.125 14.625-15.375 38.531-35.578 86.297-44.812 136.74-9.8438 8.5312 5.9062 10.594 17.578 4.7344 26.109-5.9062 8.5312-17.578 10.641-26.109 4.7344-34.219-23.719-63.141-18.141-89.906 6.5625-9.2812 8.5781-15.844 17.156-18.984 22.406-2.5312 4.2188-6.4688 7.0312-10.828 8.3438l35.672-8.9062c10.031-2.5312 20.25 3.6094 22.734 13.641 2.5312 10.031-3.6094 20.25-13.641 22.734l-72.797 18.141c-10.031 2.5312-20.203-3.6094-22.734-13.641s3.6094-20.203 13.641-22.734l35.719-8.9062zm-322.69-26.484c-10.031 2.5312-20.203-3.6094-22.734-13.641s3.6094-20.203 13.641-22.734l72.797-18.141c10.031-2.5312 20.25 3.6094 22.734 13.641 2.5312 10.031-3.6094 20.25-13.641 22.734zm-96.797-19.219c-5.3438 8.8594-16.875 11.719-25.734 6.4219-8.9062-5.3438-11.766-16.875-6.4219-25.734 4.7812-8.0625 13.406-19.359 25.688-30.656 34.5-31.875 76.406-42.609 120.98-19.406 4.0781-4.9219 9-10.125 14.672-15.375 38.531-35.531 86.297-44.766 136.74-9.8438 8.5312 5.9062 10.594 17.578 4.7344 26.109-5.9062 8.5312-17.578 10.594-26.109 4.7344-34.219-23.719-63.141-18.141-89.906 6.5625-9.2812 8.5781-15.844 17.156-18.984 22.406-5.5781 9.2812-17.859 11.906-26.766 5.7188-34.219-23.719-63.094-18.094-89.906 6.6094-9.2812 8.5781-15.844 17.156-18.984 22.406zm176.29-625.74c82.828 0 150 67.172 150 150s-67.172 150-150 150-150-67.172-150-150 67.172-150 150-150zm0 37.5c-62.156 0-112.5 50.344-112.5 112.5s50.344 112.5 112.5 112.5 112.5-50.344 112.5-112.5-50.344-112.5-112.5-112.5zm-18.75-98.812c0-10.359 8.3906-18.75 18.75-18.75s18.75 8.3906 18.75 18.75v31.875c0 10.359-8.3906 18.75-18.75 18.75s-18.75-8.3906-18.75-18.75zm230.02 192.56c10.359 0 18.75 8.3906 18.75 18.75s-8.3906 18.75-18.75 18.75h-31.828c-10.359 0-18.75-8.3906-18.75-18.75s8.3906-18.75 18.75-18.75zm-192 230.02c0.046875 10.359-8.3438 18.797-18.703 18.797-10.359 0.046875-18.75-8.3438-18.797-18.703l-0.09375-31.875c0-10.359 8.3438-18.75 18.703-18.797 10.359 0 18.797 8.3438 18.797 18.703zm-230.48-191.81c-10.359 0.046875-18.797-8.3438-18.844-18.656-0.046875-10.359 8.3438-18.797 18.656-18.844l31.828-0.09375c10.406-0.046875 18.797 8.3438 18.844 18.656 0.046875 10.406-8.3438 18.797-18.656 18.844zm348.32-181.26c7.3594-7.2656 19.219-7.2188 26.531 0.14062 7.2656 7.3594 7.2188 19.219-0.14062 26.531l-22.641 22.406c-7.4062 7.2656-19.219 7.2188-26.531-0.14062-7.3125-7.4062-7.2188-19.219 0.14063-26.531zm23.812 300c7.2188 7.4062 7.0781 19.266-0.32812 26.531-7.4062 7.2188-19.266 7.0781-26.531-0.32812l-22.219-22.781c-7.2188-7.4062-7.0781-19.266 0.32812-26.531 7.4062-7.2188 19.266-7.0781 26.531 0.32812zm-297.89 23.812c-7.3594 7.2656-19.219 7.2188-26.531-0.14062-7.2656-7.3594-7.2188-19.219 0.09375-26.531l22.594-22.406c7.4062-7.2656 19.219-7.2188 26.531 0.14062s7.2188 19.219-0.09375 26.531zm-27.281-296.16c-7.4062-7.2188-7.5938-19.125-0.28125-26.531 7.2188-7.4062 19.078-7.5469 26.531-0.28125l22.781 22.219c7.4062 7.2188 7.5469 19.078 0.28125 26.531-7.2188 7.4062-19.125 7.5469-26.531 0.28125zm426.84 972.37-16.781 5.4844c-27.281 8.9062-56.672 8.5781-83.719-0.79688l-36.562-12.656c-19.312-6.7031-40.312-6.9375-59.766-0.5625l-43.031 14.016c-27.281 8.9062-56.672 8.5781-83.672-0.79688l-36.656-12.656c-19.312-6.7031-40.266-6.9375-59.766-0.5625l-43.031 14.016c-9.8438 3.1875-20.438-2.1562-23.625-12.047-3.2344-9.8438 2.1562-20.438 12-23.625l43.031-14.016c27.281-8.9062 56.672-8.625 83.719 0.79688l36.609 12.656c19.312 6.7031 40.312 6.8906 59.766 0.5625l43.031-14.016c27.234-8.9062 56.625-8.625 83.719 0.79688l36.562 12.656c19.359 6.7031 40.359 6.8906 59.812 0.5625l34.172-11.156c7.6875-30.562 22.828-58.969 43.828-84.188-7.875 0.46875-15.703 1.9688-23.344 4.4531l-43.031 14.016c-27.281 8.9062-56.672 8.5781-83.719-0.79688l-36.562-12.656c-19.312-6.7031-40.312-6.9375-59.766-0.5625l-43.031 14.016c-27.281 8.9062-56.672 8.5781-83.672-0.79688l-36.656-12.656c-19.312-6.7031-40.266-6.9375-59.766-0.5625l-43.031 14.016c-9.8438 3.1875-20.438-2.1562-23.625-12.047-3.2344-9.8438 2.1562-20.438 12-23.625l43.031-14.016c27.281-8.9062 56.672-8.625 83.719 0.79688l36.609 12.656c19.312 6.7031 40.312 6.8906 59.766 0.5625l43.031-14.016c27.234-8.9062 56.625-8.625 83.719 0.79688l36.562 12.656c19.359 6.7031 40.359 6.8906 59.812 0.5625l43.031-14.016c22.594-7.4062 46.688-8.4375 69.703-3.2344 58.406-48.281 141.98-78.281 234.28-78.281 5.5312 0 11.062 0.09375 16.547 0.32812 12.328-138-1.9688-236.68-33.094-302.53-7.9688-16.969-15.75-29.203-22.266-37.406-27.891 30.891-38.109 77.719-33 166.5 1.125 20.672-23.906 31.828-38.531 17.25-25.734-25.641-48-57.75-58.5-94.594-11.344-39.797-6.4688-79.172 17.156-115.92-32.156 13.453-63.516 32.812-90.609 59.297-15.141 14.719-40.641 2.3906-38.203-18.656 7.6875-71.156 38.109-133.18 102.66-159.56-23.531-6.0938-45.984-7.7344-64.406-2.8594-22.688 5.9062-38.344-22.312-21.047-38.344 59.297-54.797 131.63-77.156 205.22-29.719 8.1562-18.188 19.781-36.562 35.438-53.062 31.688-33.375 73.969-51.609 126.98-48.516 19.969 1.3125 28.594 26.062 13.594 39.328-21.891 19.594-41.25 42.891-52.969 67.781 23.391-10.969 49.266-19.266 76.406-22.734 62.203-7.9219 117.84 12.562 159.71 68.719 11.766 15.75-0.84375 37.875-20.297 35.906-53.531-5.2969-106.88-3.4688-142.45 9.1875 19.781 7.0312 39.188 17.578 56.531 32.531 42.094 36.141 61.875 90.703 51.656 164.53-2.6719 19.406-26.906 26.203-39.516 11.391-25.078-29.719-56.672-61.641-89.906-86.625-19.969-15.094-38.625-25.969-55.453-32.438 13.219 21.656 27.609 51 41.812 88.922 30.797 82.078 52.781 186.79 62.438 316.74 91.406 42.516 152.86 119.34 152.86 208.26 0 10.359-8.3906 18.75-18.75 18.75h-600c-10.359 0-18.75-8.3906-18.75-18.75l0.09375-5.5312zm343.13-596.16c-4.6875-7.125-8.7188-12.656-11.906-16.688-2.5312 0.79687-4.9688 1.7812-7.4062 3.0469-5.25 2.7188-10.219 5.4844-14.906 8.3906 8.6719 10.828 18.047 25.641 27.188 45.047 34.078 72.234 49.359 177.47 36.469 321.66 25.547 3.2812 50.016 8.9062 73.172 16.594-10.031-118.03-30.609-213.28-58.688-288.1-14.109-37.594-29.062-67.266-43.922-89.906zm105.56 418.87c-38.766-14.906-82.969-23.391-130.03-23.391-83.062 0-157.26 26.484-208.6 68.156-5.0625 4.125-9.8906 8.3438-14.531 12.75-31.594 30.234-52.031 66.891-57 106.59h560.16c-8.7188-69.797-65.391-130.31-146.34-162.61l-3.6562 0.23438-0.09375-1.7344zm81.656-363.14c-0.60938-42.984-15.469-74.156-41.25-96.281-22.031-18.938-49.406-29.297-74.906-33.281-18.656-2.9062-25.594-25.781-11.906-38.625 23.625-22.031 61.359-33.188 109.22-36.938 18-1.4062 36.188-1.6406 53.719-1.0781-28.734-24.375-62.484-32.484-100.5-27.656-34.453 4.4062-67.641 18.562-94.547 35.484-16.5 10.312-37.359-3.5156-34.219-22.688 5.5781-34.828 23.484-66.656 47.344-94.312-23.906 5.1094-43.641 16.969-60.094 34.266-16.781 17.672-27.938 38.625-34.312 57.609-4.9219 14.953-23.203 20.344-35.344 10.641-46.312-36.422-92.016-35.719-133.97-12.375 26.578 2.9531 54.375 11.906 81.75 24.281 21.094 9.5156 15.797 40.688-6.9375 43.078-61.594 6.7031-96 45.703-111.14 98.203 39.188-28.922 82.828-47.109 125.16-57.141 22.969-5.5312 37.781 23.25 20.203 38.859-62.719 55.453-59.016 113.72-20.438 166.97 0.32812-109.59 32.297-157.64 98.438-191.72 43.219-22.312 94.875-5.4844 151.69 37.219 25.828 19.406 50.344 42.375 72.047 65.484z" fill-rule="evenodd"/>
</svg>
