<?xml version="1.0" encoding="UTF-8"?>
<svg width="1200pt" height="1200pt" version="1.1" viewBox="0 0 1200 1200" xmlns="http://www.w3.org/2000/svg">
 <path d="m600 150c10.355 0 18.75-8.3945 18.75-18.75v-75c0-10.355-8.3945-18.75-18.75-18.75s-18.75 8.3945-18.75 18.75v75c0 10.355 8.3945 18.75 18.75 18.75z"/>
 <path d="m349.39 203.43c3.4727 6.0156 9.7773 9.3789 16.258 9.3789 3.1797 0 6.4062-0.8125 9.3594-2.5156 8.9688-5.1758 12.039-16.645 6.8633-25.613l-37.5-64.953c-5.1758-8.9688-16.648-12.035-25.613-6.8633-8.9688 5.1758-12.039 16.645-6.8633 25.613z"/>
 <path d="m119.72 344.36 64.953 37.5c2.9531 1.707 6.1758 2.5156 9.3594 2.5156 6.4805 0 12.781-3.3633 16.258-9.3789 5.1758-8.9688 2.1055-20.434-6.8633-25.613l-64.953-37.5c-8.9688-5.1797-20.434-2.1055-25.613 6.8633-5.1797 8.9688-2.1055 20.434 6.8594 25.613z"/>
 <path d="m150 600c0-10.355-8.3945-18.75-18.75-18.75h-75c-10.355 0-18.75 8.3945-18.75 18.75s8.3945 18.75 18.75 18.75h75c10.355 0 18.75-8.3945 18.75-18.75z"/>
 <path d="m184.68 818.14-64.953 37.5c-8.9688 5.1758-12.039 16.645-6.8633 25.613 3.4727 6.0156 9.7773 9.3789 16.258 9.3789 3.1797 0 6.4062-0.8125 9.3594-2.5156l64.953-37.5c8.9688-5.1758 12.039-16.645 6.8633-25.613-5.1836-8.9688-16.648-12.039-25.617-6.8633z"/>
 <path d="m375 989.71c-8.9688-5.1797-20.434-2.1055-25.613 6.8633l-37.5 64.953c-5.1758 8.9688-2.1055 20.434 6.8633 25.613 2.9531 1.707 6.1758 2.5156 9.3594 2.5156 6.4805 0 12.781-3.3633 16.258-9.3789l37.5-64.953c5.1719-8.9688 2.1016-20.434-6.8672-25.613z"/>
 <path d="m600 1050c-10.355 0-18.75 8.3945-18.75 18.75v75c0 10.355 8.3945 18.75 18.75 18.75s18.75-8.3945 18.75-18.75v-75c0-10.355-8.3945-18.75-18.75-18.75z"/>
 <path d="m850.61 996.57c-5.1758-8.9688-16.645-12.035-25.613-6.8633-8.9688 5.1758-12.039 16.645-6.8633 25.613l37.5 64.953c3.4727 6.0156 9.7773 9.3789 16.258 9.3789 3.1797 0 6.4062-0.8125 9.3594-2.5156 8.9688-5.1758 12.039-16.645 6.8633-25.613z"/>
 <path d="m1080.3 855.64-64.953-37.5c-8.9688-5.1797-20.438-2.1055-25.613 6.8633-5.1758 8.9688-2.1055 20.434 6.8633 25.613l64.953 37.5c2.9531 1.707 6.1758 2.5156 9.3594 2.5156 6.4805 0 12.781-3.3633 16.258-9.3789 5.1719-8.9688 2.0977-20.434-6.8672-25.613z"/>
 <path d="m1143.8 581.25h-75c-10.355 0-18.75 8.3945-18.75 18.75s8.3945 18.75 18.75 18.75h75c10.355 0 18.75-8.3945 18.75-18.75s-8.3945-18.75-18.75-18.75z"/>
 <path d="m1006 384.38c3.1797 0 6.4062-0.8125 9.3594-2.5156l64.953-37.5c8.9688-5.1758 12.039-16.645 6.8633-25.613s-16.645-12.035-25.613-6.8633l-64.953 37.5c-8.9688 5.1758-12.039 16.645-6.8633 25.613 3.4727 6.0156 9.7773 9.3789 16.254 9.3789z"/>
 <path d="m825 210.29c2.9531 1.707 6.1758 2.5156 9.3594 2.5156 6.4805 0 12.781-3.3633 16.258-9.3789l37.5-64.953c5.1758-8.9688 2.1055-20.434-6.8633-25.613-8.9688-5.1758-20.434-2.1055-25.613 6.8633l-37.5 64.953c-5.1797 8.9688-2.1094 20.434 6.8594 25.613z"/>
 <path d="m1031.2 536.97v-55.906c0-50.922-36.078-93.566-84.008-103.74-35.902-55.844-85.051-102.62-142.67-135.6-62-35.477-132.74-54.227-204.57-54.227s-142.57 18.75-204.57 54.227c-57.621 32.969-106.77 79.754-142.67 135.6-47.93 10.176-84.008 52.82-84.008 103.74v55.906c0 25.316 6.8828 49.047 18.828 69.465 1.6484 107.98 44.535 209.25 121.16 285.65 77.863 77.648 181.3 120.41 291.27 120.41s213.4-42.762 291.26-120.41c76.621-76.406 119.51-177.68 121.16-285.65 11.949-20.426 18.832-44.152 18.832-69.469zm-37.5-55.906v55.906c0 55.43-45.098 100.53-100.53 100.53h-29.828c-114.22 0-207.14-92.926-207.14-207.15 0-9.8438 8.0078-17.852 17.852-17.852h251.08c37.812 0 68.57 30.758 68.57 68.566zm-413.29-31.066h39.082c1.0234 12.801 3.0391 25.324 5.9648 37.5h-51.012c2.9219-12.176 4.9414-24.699 5.9648-37.5zm-166.41-175.73c56.34-32.234 120.64-49.273 185.95-49.273s129.61 17.039 185.95 49.273c44.426 25.422 83.297 59.879 114 100.73h-225.85c-24.273 0-44.934 15.715-52.379 37.5h-43.441c-7.4453-21.785-28.105-37.5-52.383-37.5h-225.92c30.719-40.855 69.637-75.301 114.07-100.73zm-207.8 206.79c0-37.809 30.758-68.566 68.566-68.566h251.08c9.8438 0 17.852 8.0078 17.852 17.855 0.003906 114.22-92.922 207.14-207.14 207.14h-29.828c-55.43 0-100.53-45.098-100.53-100.53zm658.54 384.47c-70.785 70.586-164.82 109.46-264.79 109.46s-194-38.875-264.79-109.46c-58.98-58.816-95.957-133.84-106.82-215.05 22.281 15.434 49.289 24.508 78.387 24.508h29.828c101.36 0 188.52-61.965 225.59-150h75.613c37.074 88.035 124.23 150 225.59 150h29.828c29.098 0 56.105-9.0742 78.387-24.508-10.871 81.207-47.848 156.23-106.83 215.05z"/>
 <path d="m731.25 712.5h-262.5c-10.355 0-18.75 8.3945-18.75 18.75 0 82.711 67.289 150 150 150s150-67.289 150-150c0-10.355-8.3945-18.75-18.75-18.75zm-131.25 131.25c-55.645 0-101.98-40.609-110.94-93.75h221.88c-8.9531 53.141-55.293 93.75-110.94 93.75z"/>
 <path d="m886.74 436.74c-7.3242 7.3203-7.3242 19.191 0 26.516l37.5 37.5c3.6602 3.6602 8.457 5.4922 13.258 5.4922s9.5977-1.832 13.258-5.4922c7.3242-7.3203 7.3242-19.191 0-26.516l-37.5-37.5c-7.3203-7.3242-19.195-7.3242-26.516 0z"/>
 <path d="m838.26 455.49c-7.3203-7.3203-19.191-7.3203-26.516 0-7.3242 7.3203-7.3242 19.191 0 26.516l93.75 93.75c3.6602 3.6602 8.457 5.4922 13.258 5.4922s9.5977-1.832 13.258-5.4922c7.3242-7.3203 7.3242-19.191 0-26.516z"/>
</svg>
