<?xml version="1.0" encoding="UTF-8"?>
<svg width="1024" height="1024" viewBox="0 0 1024 1024" xmlns="http://www.w3.org/2000/svg">
  <rect width="1024" height="1024" fill="#FAC775"/>
  <g transform="translate(94,86) scale(0.71)" fill="#1a1a2e">
    <path d="m1050 712.5h-825c-40.191 0-77.332 21.441-97.43 56.25-20.094 34.809-20.094 77.691 0 112.5 20.098 34.809 57.238 56.25 97.43 56.25h600c13.398 0 25.777 7.1484 32.477 18.75 6.6992 11.602 6.6992 25.898 0 37.5-6.6992 11.602-19.078 18.75-32.477 18.75h-375c-13.398 0-25.777 7.1484-32.477 18.75-6.6992 11.602-6.6992 25.898 0 37.5 6.6992 11.602 19.078 18.75 32.477 18.75h375c40.191 0 77.332-21.441 97.43-56.25 20.094-34.809 20.094-77.691 0-112.5-20.098-34.809-57.238-56.25-97.43-56.25h-600c-13.398 0-25.777-7.1484-32.477-18.75-6.6992-11.602-6.6992-25.898 0-37.5 6.6992-11.602 19.078-18.75 32.477-18.75h825c13.398 0 25.777-7.1484 32.477-18.75 6.6992-11.602 6.6992-25.898 0-37.5-6.6992-11.602-19.078-18.75-32.477-18.75z"/>
    <path d="m300 687c9.793 1.4531 19.766-0.97266 27.797-6.7656 8.0312-5.7891 13.488-14.484 15.203-24.234 10.742-60.887 42.594-116.04 89.957-155.79 47.363-39.738 107.21-61.52 169.04-61.52s121.68 21.781 169.04 61.52c47.363 39.742 79.215 94.898 89.957 155.79 1.4258 8.7891 5.9297 16.781 12.707 22.555 6.7812 5.7695 15.391 8.9414 24.293 8.9453h2c9.8125-1.5938 18.586-7.0195 24.398-15.082 5.8125-8.0664 8.1875-18.105 6.6016-27.918-13.02-78.922-53.645-150.66-114.63-202.41-60.992-51.754-138.38-80.164-218.37-80.164s-157.38 28.41-218.37 80.164c-60.988 51.75-101.61 123.48-114.63 202.41-1.4102 10.355 1.5664 20.832 8.2109 28.902 6.6445 8.0664 16.355 12.996 26.789 13.598z"/>
    <path d="m600 287.5c9.9062-0.12891 19.367-4.1211 26.375-11.125 7.0039-7.0078 10.996-16.469 11.125-26.375v-50c0-13.398-7.1484-25.777-18.75-32.477-11.602-6.6992-25.898-6.6992-37.5 0-11.602 6.6992-18.75 19.078-18.75 32.477v50c0.12891 9.9062 4.1211 19.367 11.125 26.375 7.0078 7.0039 16.469 10.996 26.375 11.125z"/>
    <path d="m323.5 376.5c7.0312 7.0234 16.562 10.969 26.5 10.969s19.469-3.9453 26.5-10.969c7.0234-7.0312 10.969-16.562 10.969-26.5s-3.9453-19.469-10.969-26.5l-35.5-35.5c-9.5703-8.918-23.098-12.203-35.695-8.6719-12.598 3.5352-22.441 13.379-25.977 25.977-3.5312 12.598-0.24609 26.125 8.6719 35.695z"/>
    <path d="m850 387.5c9.9531 0.046875 19.504-3.918 26.5-11l35.5-35.5c7.4453-6.9375 11.75-16.602 11.93-26.773 0.17969-10.176-3.7812-19.984-10.977-27.18s-17.004-11.156-27.18-10.977c-10.172 0.17969-19.836 4.4844-26.773 11.93l-35.5 35.5c-7.0234 7.0312-10.969 16.562-10.969 26.5s3.9453 19.469 10.969 26.5c6.9961 7.082 16.547 11.047 26.5 11z"/>
    <path d="m1e3 587.5h50c13.398 0 25.777-7.1484 32.477-18.75 6.6992-11.602 6.6992-25.898 0-37.5-6.6992-11.602-19.078-18.75-32.477-18.75h-50c-13.398 0-25.777 7.1484-32.477 18.75-6.6992 11.602-6.6992 25.898 0 37.5 6.6992 11.602 19.078 18.75 32.477 18.75z"/>
    <path d="m150 587.5h50c13.398 0 25.777-7.1484 32.477-18.75 6.6992-11.602 6.6992-25.898 0-37.5-6.6992-11.602-19.078-18.75-32.477-18.75h-50c-13.398 0-25.777 7.1484-32.477 18.75-6.6992 11.602-6.6992 25.898 0 37.5 6.6992 11.602 19.078 18.75 32.477 18.75z"/>
  </g>
</svg>
