<?xml version="1.0" encoding="UTF-8"?>
<svg width="1200pt" height="1200pt" version="1.1" viewBox="0 0 1200 1200" xmlns="http://www.w3.org/2000/svg">
 <path d="m950.81 537.56c28.312 10.266 51.375 29.297 69.703 52.453 4.7344-38.578-1.3125-70.359-18.469-94.5-21.094-29.672-54.047-41.109-71.578-45.328 0.60938 25.641 0.46875 52.922-0.46875 81.703 7.0781 1.3594 14.016 3.1875 20.812 5.6719z"/>
 <path d="m686.68 465.79c26.203 28.781 47.812 69.844 56.953 128.44 59.297-44.531 113.48-66.188 161.9-64.969 13.969-455.29-182.86-483.66-184.82-483.89-1.5469-0.23438-15.656-2.5781-27.656 9.3281-11.297 11.203-28.078 43.312-13.266 132.14 25.312 151.97 11.297 253.6 6.8906 278.95z"/>
 <path d="m1047.1 708.98c-11.25-57.422-44.625-126.56-104.62-148.36-44.906-16.312-98.531-4.1719-159.79 36 0 0 0.375-0.09375 0.89062-0.23438-12.703 7.6406-26.812 16.641-42.656 27.281l-10.547 22.969c-47.859 108.14-220.74 429.47-587.34 447.1 0.046875 0.046874 0.046875 0.09375 0.046875 0.14062l7.875 10.641c2.2969 3.0938 5.7656 5.3438 9.4688 6.0469 234.32 45.188 426.14-15.609 570.19-180.74 96.047-110.11 137.72-232.45 146.06-259.31 8.9062-28.406 18-43.594 25.969-51.516 62.203 45.797 51.609 150.89 44.578 305.53-0.65625 10.172 0.9375 32.953 9.8438 40.078 1.2188 0.9375 4.875 3.8906 14.578 0.9375 39.281-11.719 94.922-157.13 75.469-256.55z"/>
 <path d="m718.69 610.92c-3.7031-29.906-8.3906-51.984-14.016-68.484 0.14062 0.1875 0.32812 0.32812 0.46875 0.46875-0.65625-1.6875-1.3594-3.2812-2.0156-4.9219-1.9688-5.3438-4.125-9.9844-6.3281-14.109-51.656-104.25-160.18-101.25-165.84-100.88-1.2188-0.046875-2.4375-0.046875-3.6094-0.046875-82.781 0-148.4 73.078-180.47 117.09-14.062 19.312-24.234 39.844-30.141 61.078-8.8125 31.734-2.8125 40.875-0.79688 42.938 3.0938 3.0938 6.3281 4.5469 10.172 4.5469h0.09375c10.125-0.046875 21.844-9.7031 25.125-13.078 101.39-101.77 189.56-148.87 262.64-140.86 22.172 87.141-23.531 219-241.31 379.22-13.406 9.8438-27.797 19.266-42.797 27.984l-38.578 22.453c-15.75 9.1406-30.703 19.875-44.484 31.828l-104.02 90.234c-2.7656 2.3906-4.3594 5.8594-4.3594 9.5156v13.547c394.92-16.922 557.95-400.64 580.26-458.53z"/>
</svg>
