<?xml version="1.0" encoding="UTF-8"?>
<svg width="1200pt" height="1200pt" version="1.1" viewBox="0 0 1200 1200" xmlns="http://www.w3.org/2000/svg">
 <path d="m584.4 280.8c68.398 8.3984 132-40.801 140.4-109.2 8.3984-68.398-40.801-132-109.2-140.4-68.398-8.3984-132 40.801-140.4 109.2-8.3984 68.398 40.801 132 109.2 140.4z"/>
 <path d="m890.4 87.602c-12-26.398-43.199-38.398-69.602-26.398-26.398 12-38.398 43.199-26.398 69.602 8.3984 19.199 18 50.398 14.398 88.801-7.1992 68.398-50.398 98.398-87.602 98.398l-243.59-0.003906c-37.199 0-80.398-31.199-87.602-98.398-4.8008-38.398 4.8008-69.602 14.398-88.801 12-26.398 0-57.602-26.398-69.602s-57.602 0-69.602 26.398c-14.398 31.199-30 81.602-22.801 144 13.199 123.6 102 188.4 186 192l10.801 252-85.199 420c-7.1992 33.602 15.602 67.199 49.199 74.398 4.8008 1.1992 8.3984 1.1992 13.199 1.1992 28.801 0 55.199-20.398 61.199-50.398l79.203-393.6 80.398 392.4c6 30 32.398 50.398 61.199 50.398 3.6016 0 8.3984 0 13.199-1.1992 33.602-7.1992 56.398-40.801 49.199-74.398l-85.199-420 10.801-252c82.801-3.6016 171.6-68.398 186-192 4.8008-61.199-10.797-111.6-25.199-142.8z"/>
</svg>
