<?xml version="1.0" encoding="UTF-8"?>
<svg width="1200pt" height="1200pt" version="1.1" viewBox="0 0 1200 1200" xmlns="http://www.w3.org/2000/svg">
 <path d="m663 751.87 22.5-37.5c10.828-18.188 5.0625-41.719-12.938-52.875-81.75-50.062-63.375-50.25-145.13 0-18 11.156-23.766 34.688-12.938 52.875l22.5 37.5-19.875 39c-15.375 29.062-14.391 64.031 2.5781 92.203s47.438 45.375 80.297 45.375 63.328-17.203 80.297-45.375 17.953-63.141 2.5781-92.203zm-115.88-58.125 52.875-32.25 52.688 33.562-52.312 87.375h-0.375l-52.312-87.375c-0.5625-0.1875-0.79688-0.79688-0.5625-1.3125zm52.875 194.81c-19.125-0.42188-36.75-10.5-46.734-26.812-10.031-16.312-11.062-36.562-2.7656-53.812l9.1875-18.75c5.9062 17.578 21.797 29.953 40.312 31.312 18.375-1.2656 34.219-13.359 40.312-30.75l9.1875 18.75c8.0625 17.203 6.8906 37.266-3.0938 53.391-9.9844 16.172-27.422 26.203-46.406 26.672z"/>
 <path d="m868.87 978.19c29.906-21.984 48.797-55.875 51.75-92.859 2.9062-36.984-10.359-73.453-36.375-99.891-10.266-9.7969-16.125-23.297-16.312-37.5v-198c0.23438-84.562-37.922-164.72-103.69-217.87 21.094-27.656 25.312-64.641 11.062-96.328-14.297-31.734-44.812-53.016-79.5-55.547-16.312-80.438-111.56-131.26-186.19-91.5-36.141 17.953-57.844 55.969-54.938 96.188 0.1875 4.0312 0.75 8.0625 1.6875 12-21.047 14.766-35.203 37.406-39.188 62.812-3.9844 25.406 2.4844 51.328 18 71.812-64.875 50.719-102.84 128.39-103.12 210.74v206.26c-0.23438 14.25-6.2344 27.797-16.688 37.5-26.156 26.391-39.516 62.859-36.469 99.891 3.0469 37.031 22.125 70.922 52.219 92.672-3.5156 42.703-20.297 83.203-48 115.88-6.75 7.875-5.8125 19.688 2.0625 26.438s19.688 5.8125 26.438-2.0625c29.531-34.594 48.609-76.875 55.125-121.87 12.75 4.2188 26.109 6.375 39.562 6.375 13.875 0 33.938-5.8125 39.188 10.688 22.172 66.562 84.422 111.47 154.6 111.47 70.172 0 132.42-44.906 154.6-111.47 5.25-16.688 25.5-10.5 39-10.5 13.453 0 26.812-2.1562 39.562-6.375 6.5156 45 25.594 87.281 55.125 121.87 6.75 7.875 18.562 8.8125 26.438 2.0625 3.7969-3.2344 6.1406-7.8281 6.5156-12.797s-1.2188-9.8438-4.4531-13.641c-27.844-32.812-44.625-73.547-48-116.44zm-122.06-704.06c0.1875 13.734-4.6875 27.094-13.688 37.5-16.547-9.9375-34.172-17.953-52.5-24 11.672-21.047 18.094-44.578 18.75-68.625 27.141 4.3125 47.25 27.609 47.438 55.125zm-220.5-151.87c85.5-42.75 168.74 59.062 125.26 138.74l-54.188 108.38-14.812-81.938c-5.4844-30.703-27.703-55.688-57.562-64.688-48-14.062-39.188-83.062 1.3125-100.5zm-73.125 151.87c-0.28125-16.359 6.5625-32.016 18.75-42.938 16.125 25.875 54.188 23.062 68.062 49.688-26.344 5.9062-51.656 15.844-75 29.438-8.0156-10.312-12.188-23.109-11.812-36.188zm328.69 690.37c-27.375-4.7812-54.141 11.156-63 37.5-17.203 51.047-65.016 85.406-118.88 85.406s-101.67-34.359-118.88-85.406c-9.375-31.5-43.688-42.375-75-36.562-36.141-0.375-68.625-22.219-82.594-55.547s-6.7969-71.766 18.281-97.828c17.391-16.734 27.328-39.797 27.562-63.938v-206.26c0.23438-52.312 18.188-103.03 50.906-143.9 32.719-40.828 78.281-69.422 129.28-81.094l12.938 70.5c2.7656 14.156 14.156 24.984 28.453 27.047 14.25 2.0625 28.266-5.1094 34.922-17.859l37.5-75c22.875 6.5625 44.484 16.875 63.938 30.562 64.781 45.234 103.27 119.34 102.94 198.37v197.63c-3.5625 45.938 43.312 66.75 51.375 107.44 6.2812 28.688-1.7812 58.641-21.656 80.344-19.828 21.656-48.938 32.297-78.094 28.594z"/>
 <path d="m695.44 491.44c-31.078 0-56.25 25.172-56.25 56.25s25.172 56.25 56.25 56.25 56.25-25.172 56.25-56.25-25.172-56.25-56.25-56.25zm0 75c-10.359 0-18.75-8.3906-18.75-18.75s8.3906-18.75 18.75-18.75c10.547 0 19.125 8.5781 19.125 19.125s-8.5781 19.125-19.125 19.125z"/>
 <path d="m561.19 548.06c0-31.078-25.172-56.25-56.25-56.25s-56.25 25.172-56.25 56.25 25.172 56.25 56.25 56.25 56.25-25.172 56.25-56.25zm-56.25 18.75c-10.359 0-18.75-8.3906-18.75-18.75s8.3906-18.75 18.75-18.75c10.453 0.09375 18.844 8.6719 18.75 19.125s-8.6719 18.844-19.125 18.75z"/>
</svg>
