<?xml version="1.0" encoding="UTF-8"?>
<svg width="1200pt" height="1200pt" version="1.1" viewBox="0 0 1200 1200" xmlns="http://www.w3.org/2000/svg">
 <path d="m677.7 275.2c7.9609-0.10547 15.492 5.6953 21.531 21.09 6.4219 14.023 8.3203 28.91 5.8945 44.215-6.4492 61.695-16.48 123.08-28.941 183.85-13.621 53.145-21.508 107.41-27.707 161.86 40.332 25.402 70.387 40.66 91.129 62.332 73.359 76.652 55.492 122.66 57.43 176.26l-394.39-3.0742c-1.4102-54.754-2.1562-169.85 126.72-225.93 0 0-0.09375-16.16-9.7344-43.082-9.5352-57.371-23.887-113.74-34.535-170.88-6.5039-45.711-48.711-148.25-1.5469-179.46 11.051-16.613 34.875-6.6094 43.18 6.1523 14.555 25.203 15.836 54.559 16.562 82.953-3.1562 44.449 4.4492 88.746 13.883 132.07 1.3906 46.977 3.0234 94.242 4.168 141.34-9.8945 31.074 31.441 19.211 46.453 11 2.7695-25.859 3.7617-52.234 4.625-78.359-0.097656-54.988 11.398-109.2 10.039-164.22 0.57422-44.016-7.1133-93.672 20.996-131.33 10.074-13.855 22.609-26.625 34.246-26.777zm-3.4102 515.84c-21.082 0.003906-35.895 17.23-35.895 39.883 0 22.656 17.09 36.465 38.172 36.469 21.086 0 37.035-16.094 37.035-38.75s-18.227-37.605-39.312-37.602zm-159.54 6.7188c-19.891 0-36.012 16.637-36.016 37.156 0 20.52 16.125 37.152 36.016 37.156 19.891 0 36.012-16.637 36.016-37.156 0-20.52-16.125-37.152-36.016-37.156zm160.56 23.82c3.5234 0 6.3828 2.8555 6.3828 6.3828 0 3.5234-2.8555 6.3828-6.3828 6.3828-3.5234 0-6.3828-2.8555-6.3828-6.3828 0-3.5234 2.8555-6.3828 6.3828-6.3828zm-160.67 6.8359c3.5234 0 6.3828 2.8555 6.3828 6.3828 0 3.5234-2.8555 6.3828-6.3828 6.3828-3.5234 0-6.3828-2.8555-6.3828-6.3828 0-3.5234 2.8555-6.3828 6.3828-6.3828z" fill-rule="evenodd"/>
</svg>
