<?xml version="1.0" encoding="UTF-8"?>
<svg width="1200pt" height="1200pt" version="1.1" viewBox="0 0 1200 1200" xmlns="http://www.w3.org/2000/svg">
 <path d="m926.4 162c0 72.902-59.098 132-132 132-72.898 0-132-59.098-132-132s59.102-132 132-132c72.902 0 132 59.098 132 132z"/>
 <path d="m1060.8 684-34.801-159.6c-1.1992-3.6016-2.3984-7.1992-3.6016-9.6016l-92.398-170.4c-6-13.199-19.199-20.398-33.602-20.398h-204c-14.398 0-27.602 8.3984-34.801 20.398l-92.398 170.4c-1.1992 3.6016-2.3984 6-3.6016 9.6016l-33.602 150-58.801 7.1992-67.195-105.6c-4.8008-8.3984-14.398-13.199-24-13.199h-112.8c-10.801 0-20.398 6-25.199 14.398l-64.801 120c-1.1992 1.1992-1.1992 3.6016-2.3984 4.8008l-34.801 106.8c-4.8008 14.398 3.6016 31.199 18 36 2.3984 1.1992 6 1.1992 8.3984 1.1992 12 0 22.801-7.1992 26.398-19.199l33.602-104.4 13.199-24-4.8008 97.199-40.797 138c-6 18 8.3984 37.199 26.398 37.199h34.801v126l-28.801 7.1992c-15.602 3.6016-24 19.199-20.398 34.801 3.6016 13.199 14.398 21.602 27.602 21.602 2.3984 0 4.8008 0 7.1992-1.1992l50.398-13.199c12-3.6016 21.602-14.398 21.602-27.602v-148.8h21.602v147.6c0 13.199 8.3984 24 21.602 27.602l50.398 13.199c2.3984 1.1992 4.8008 1.1992 7.1992 1.1992 12 0 24-8.3984 27.602-21.602 3.6016-15.602-4.8008-31.199-20.398-34.801l-30-7.1992-0.003907-126h34.801c19.199 0 32.398-18 26.398-37.199l-42-136.8-6-115.2 31.199 46.801c4.8008 8.3984 14.398 13.199 24 13.199h3.6016l92.398-10.801c1.1992 1.1992 3.6016 1.1992 4.8008 1.1992 2.3984 1.1992 6 1.1992 8.3984 1.1992 18 0 33.602-12 38.398-30l33.602-153.6 38.398-70.801-21.602 247.2c-2.3984 24 16.801 43.199 39.602 43.199h4.8008v315.6l-43.199 10.801c-20.398 6-33.602 26.398-27.602 48 4.8008 18 20.398 28.801 37.199 28.801 3.6016 0 7.1992 0 9.6016-1.1992l72-19.199c16.801-4.8008 28.801-20.398 28.801-37.199v-346.8h34.801v345.6c0 18 12 33.602 28.801 37.199l72 19.199c3.6016 1.1992 7.1992 1.1992 9.6016 1.1992 16.801 0 33.602-12 37.199-28.801 6-20.398-7.1992-42-27.602-48l-43.199-10.801v-315.6h4.8008c24 0 42-20.398 39.602-43.199l-21.602-247.2 38.398 70.801 33.602 153.6c3.6016 18 20.398 30 38.398 30 2.3984 0 6 0 8.3984-1.1992 22.801-3.6055 36.004-24.004 31.203-45.605z"/>
 <path d="m424.8 434.4c0 56.996-46.203 103.2-103.2 103.2-56.996 0-103.2-46.207-103.2-103.2 0-56.996 46.207-103.2 103.2-103.2 56.996 0 103.2 46.203 103.2 103.2z"/>
</svg>
