<?xml version="1.0" encoding="UTF-8"?>
<svg width="1200pt" height="1200pt" version="1.1" viewBox="0 0 1200 1200" xmlns="http://www.w3.org/2000/svg">
 <path d="m1125 562.5c0-289.5-235.5-525-525-525s-525 235.5-525 525c0 213.05 125.63 401.11 320.9 483.28l-2.1562 60.469c0 31.031 25.219 56.25 56.25 56.25h37.5c31.031 0 56.25-25.219 56.25-56.906l-0.75-21.516c18.609 2.0625 37.547 3.4219 57.047 3.4219 39.422 0 78.047-4.5 115.36-13.031l-2.8594 31.781c0 31.031 25.219 56.25 56.25 56.25h37.5c31.031 0 56.25-25.219 56.25-56.25v-89.297c162.1-93.703 262.5-266.68 262.5-454.45zm-760.03-21 47.25 47.25-8.8594 247.69c-87.562-63-140.86-165.14-140.86-273.94 0-77.016 27.141-151.74 75-211.45v124.13c0 25.031 9.75 48.609 27.469 66.281zm460.03 564.74c0 10.359-8.3906 18.75-18.75 18.75h-37.5c-10.359 0-18.75-8.3906-18.844-17.062l37.5-412.5c0.51562-5.5312-1.5-11.016-5.4375-14.953l-53.016-53.016c-10.641-10.641-16.453-24.75-16.453-39.797v-6.4219c0-138.56 40.219-263.26 69.516-321.66 0.70312-0.89062 1.4062-1.6875 1.9688-2.7188 0.42188-0.75 0.42188-1.5938 0.70312-2.3906 8.8594-16.828 16.594-27.375 21.562-29.484 10.359 0 18.75 8.3906 18.75 18.75zm37.5-755.21c47.859 59.672 75 134.39 75 211.45 0 78.469-26.578 151.92-75 211.45zm0 622.31v-143.81c71.438-69.984 112.5-166.64 112.5-267.05 0-100.22-41.062-197.02-112.5-267.37v-51.375c0-31.031-25.219-56.25-56.25-56.25-15.047 0-30.797 13.406-45.984 36.328-31.922-15.094-65.719-25.875-101.06-31.594-10.266-1.6406-19.875 5.2969-21.516 15.516s5.2969 19.828 15.516 21.516c30.984 5.0156 60.703 14.344 88.781 27.375-37.266 77.625-67.031 207.98-67.031 324.61v6.4219c0 25.031 9.75 48.609 27.469 66.281l46.828 46.828-30.328 334.18c-38.25 9.7969-78.141 15-118.97 15-20.016 0-39.469-1.5-58.359-3.7969l-4.0781-114c20.719 3.4688 41.625 5.2969 62.438 5.2969 20.062 0 39.984-1.5938 59.25-4.7344 10.219-1.6875 17.156-11.297 15.469-21.516s-11.297-17.109-21.516-15.469c-37.734 6.1875-77.906 5.2031-117.05-2.25l-10.875-304.78 47.25-47.25c17.719-17.719 27.469-41.25 27.469-66.281v-268.92c0-10.359-8.3906-18.75-18.75-18.75s-18.75 8.3906-18.75 18.75v268.92c0 15.047-5.8594 29.156-16.453 39.797l-53.016 53.016c-3.7031 3.7031-5.6719 8.7188-5.4844 13.922l18.75 524.34c0 10.359-8.3906 18.75-18.75 18.75h-37.5c-10.359 0-18.75-8.3906-18.75-18.094l18.75-525c0.1875-5.2031-1.7812-10.266-5.4844-13.922l-53.016-53.016c-10.641-10.641-16.453-24.75-16.453-39.797v-268.92c0-10.359-8.3906-18.75-18.75-18.75s-18.75 8.3906-18.75 18.75v88.875c-71.438 70.359-112.5 167.16-112.5 267.37 0 129.1 67.547 249.79 176.81 318l-4.4531 125.02c-173.81-79.031-284.86-249.98-284.86-443.02 0-268.82 218.68-487.5 487.5-487.5s487.5 218.68 487.5 487.5c0 167.06-85.453 321.66-225 410.86zm-412.5-767.11v225c0 10.359-8.3906 18.75-18.75 18.75s-18.75-8.3906-18.75-18.75v-225c0-10.359 8.3906-18.75 18.75-18.75s18.75 8.3906 18.75 18.75zm75 0v225c0 10.359-8.3906 18.75-18.75 18.75s-18.75-8.3906-18.75-18.75v-225c0-10.359 8.3906-18.75 18.75-18.75s18.75 8.3906 18.75 18.75z"/>
</svg>
