<?xml version="1.0" encoding="UTF-8"?>
<svg width="1200pt" height="1200pt" version="1.1" viewBox="0 0 1200 1200" xmlns="http://www.w3.org/2000/svg">
 <path d="m557.44 1158.3c-23.016 0-49.922-5.1094-80.812-18.562-8.4844-3.7031-15.938-9.1875-21.938-16.031h-145.45c-32.906 0-59.672-26.766-59.672-59.672 0-2.5781 0.09375-5.1094 0.32812-7.5938-5.5312-9.4688-11.766-23.766-17.531-41.484-79.688-13.031-134.63-42.844-163.4-88.781-34.406-54.938-21.609-118.64-10.875-151.74 3.75-11.578 14.672-19.172 26.578-19.172 12.141 0.14062 22.688 8.0625 26.203 19.734 11.156 37.078 38.766 97.594 101.44 110.72 0.5625-62.156 17.25-127.87 67.125-175.74 88.547-84.938 105.8-195.79 108.66-220.64-3.375-6-6.6094-12.188-9.7031-18.562-13.922 32.859-27 38.906-32.109 41.25-8.8125 4.0781-18.516 4.0312-27.281-0.14062-23.625-11.203-40.031-35.531-49.641-54-2.3438-4.5469-5.8594-8.25-10.078-10.641-20.438-11.625-56.719-36.188-69.891-70.406-12.281-31.922-7.9219-60.047-4.2656-73.922 2.2969-8.7188 6.4688-16.688 12.281-23.672l107.67-128.58c0.32812-0.42188 0.70312-0.79688 1.0781-1.1719 21.281-21.281 55.125-23.203 71.484-22.922 26.766-25.031 136.4-111.7 334.69-69.422 1.5469 0.32812 3.2344 0.375 4.875 0.046875 17.25-3.0938 62.062-7.3125 105.98 21 33.188 21.422 83.391 46.828 110.34 60.047 18.75 9.2344 31.734 26.906 34.641 47.25 4.2656 29.766 3.8438 74.344-22.453 117.66-5.625 9.2812-8.7656 18.281-9.2812 26.719-3.5156 56.062-38.25 58.828-48.656 58.453-11.109-0.46875-23.109-9.2812-35.391-23.578 5.7188 46.266 2.7188 91.828-20.719 130.5 32.438-7.3125 81.891-31.781 127.22-108.23 12.984-21.844 32.672-37.594 55.5-44.344 47.719-14.062 88.547-5.8125 115.03 23.344 23.531 25.875 30.094 63.328 17.203 97.734-22.5 60-81 170.63-219.66 237.71l-80.953 37.547c-3.0938 1.4062-5.0625 4.4531-5.1562 7.9219-0.28125 13.219-1.1719 29.344-3.1406 46.781 70.406 40.406 63.281 128.81 55.406 170.34l22.5 2.625c43.688 5.1094 76.688 42.141 76.688 86.156 0 27.984-22.781 50.766-50.766 50.766h-278.53c-3.375 8.25-8.7188 15.844-15.797 21.938-16.594 14.344-46.219 32.531-89.672 32.531zm-77.859-61.172c2.8594 4.2188 6.8438 7.5938 11.438 9.6094 67.688 29.484 109.45 11.812 132.56-8.2031 4.125-3.5625 6.7031-8.3906 7.4062-13.359 0-0.65625 0.09375-1.2656 0.1875-1.875 0.09375-2.625-0.32812-5.25-1.3125-7.7812-5.0625-12.75-15-27.656-27.938-42-9.4688-10.453-15.234-23.25-16.828-37.031l-18.469-163.4c-1.125-9.8906 6-18.797 15.844-19.922 9.8438-1.2188 18.797 6 19.922 15.844l18.469 163.4c0.70312 6.2344 3.375 12.094 7.7812 16.969 11.156 12.328 26.203 31.547 34.688 52.875 0.75 1.875 1.3594 3.7031 1.875 5.625h276.28c8.1562 0 14.766-6.6562 14.766-14.766 0-25.734-19.266-47.438-44.859-50.391l-26.438-3.0938c-9-1.0312-17.156-5.8594-22.5-13.172-5.2969-7.3125-7.2656-16.594-5.4375-25.453 5.9531-28.875 13.641-93.328-25.734-127.45-8.0625 37.781-22.594 76.5-48.422 102.89-6.9844 7.125-18.375 7.2188-25.453 0.28125-7.125-6.9375-7.2188-18.375-0.28125-25.453 41.766-42.609 47.062-136.97 47.672-164.86 0.375-17.297 10.359-32.531 26.016-39.797l80.672-37.406c127.08-61.5 180.74-162.89 201.37-217.82 8.0156-21.375 4.0312-45.281-10.125-60.891-21.375-23.531-54.281-20.062-78.188-13.031-14.062 4.1719-26.391 14.156-34.688 28.172-74.25 125.26-163.22 130.4-191.86 128.34-87.375 71.906-185.11 98.438-269.72 73.312-43.219-12.844-80.812-38.531-111.05-75.094-11.391 50.625-40.312 134.21-112.92 203.86-71.391 68.484-60.75 186.19-41.719 254.9 0.9375 1.9219 1.5938 4.0312 1.7812 6.2344 1.4531 4.875 2.9531 9.4688 4.4062 13.781 15.281-18.328 38.25-30 63.891-30h18.188c9.9375 0 18 8.0625 18 18s-8.0625 18-18 18h-18.188c-22.688 0-41.719 16.125-46.172 37.5-0.09375 0.75-0.23438 1.5-0.42188 2.25-0.375 2.3906-0.5625 4.875-0.5625 7.3594 0 13.031 10.594 23.672 23.672 23.672h128.72c-14.812-52.172-42.609-161.9-48.656-267.42-0.5625-9.9375 7.0312-18.422 16.922-18.984 10.078-0.60937 18.422 7.0312 18.984 16.922 6.3281 110.39 37.5 226.22 50.625 270.89 0.65625 2.1562 1.5 4.2188 2.625 6.1406 0.42188 0.5625 0.79688 1.2188 1.1719 1.875zm-393.98-285.71c-5.7188 29.625-5.4375 64.828 13.875 95.625 21.188 33.844 62.344 57.141 122.48 69.422-3.6562-16.734-6.5625-34.922-8.25-53.906-56.719-8.5781-102.05-47.953-128.11-111.09zm305.76-405.98c26.859 87.703 79.031 147.05 147.14 167.29 74.766 22.172 162.98-3.75 242.06-71.203 0.046875-0.046875 0.09375-0.046875 0.09375-0.09375 61.875-57.234 34.594-157.69 11.484-239.53-10.688-22.922-20.766-46.781-29.906-69.469-3.7031-9.2344 0.75-19.688 9.9844-23.391 9.1875-3.7031 19.688 0.75 23.438 9.9844 34.875 86.812 77.812 165.47 94.5 173.39 7.9688-0.75 9.8906-17.391 10.312-24.75 0.89062-14.297 5.7656-28.828 14.438-43.125 20.766-34.219 21-69.938 17.578-93.891-1.2188-8.5781-6.7969-16.078-14.906-20.062-27.656-13.594-79.219-39.703-114-62.109-33.094-21.375-67.031-18.188-80.062-15.844-6.1875 1.125-12.703 1.0312-18.797-0.28125-203.16-43.312-301.69 59.062-306.89 64.688-3.75 4.125-9.375 6.4219-15.281 5.8594-9.0469-0.9375-37.594-0.75-50.625 11.578l-107.06 127.87c-2.4375 2.9062-4.125 6.1875-5.1094 9.75-2.5781 9.7031-5.5781 29.344 3.0469 51.797 9.4688 24.656 40.969 44.578 54.047 52.031 10.266 5.8594 18.656 14.578 24.234 25.312 9.2812 17.812 20.578 31.172 31.219 37.078 5.1094-4.5469 14.953-21.938 23.953-55.359 0.75-2.7656 0.79688-5.5312 0.23438-8.25-0.28125-0.89062-0.5625-1.7812-0.79688-2.6719-7.875-22.031-23.344-80.812-2.8125-160.45 2.4844-9.6094 12.281-15.422 21.938-12.938 9.6094 2.4844 15.422 12.281 12.938 21.938-18.188 70.406-4.7812 120.98 1.9219 139.64 0.046875 0.09375 0.09375 0.1875 0.09375 0.32812 0.5625 1.5938 1.0312 3.1875 1.4531 4.8281zm190.82 90.281c-29.812 0-52.922-19.969-55.734-22.453-7.4062-6.6562-8.0156-18-1.3594-25.406 6.6094-7.3594 18-7.9688 25.359-1.4062 5.0625 4.4062 21.281 15.281 36.375 12.938 10.359-1.6875 19.781-9.7031 28.078-23.812 0.65625-1.0781 1.3594-2.0625 2.1562-2.9531-23.484-7.9688-43.359-21.047-59.062-38.812-3.6562-4.125-5.2031-9.6562-4.2188-15.094 0.98437-5.4375 4.3594-10.078 9.1875-12.703 31.359-16.875 62.297-22.594 92.156-17.109 8.625 1.5938 14.812 9.1406 14.719 17.906-0.28125 23.391-10.078 43.547-29.203 60 1.125 0.60938 2.25 1.3125 3.2812 2.2031 5.1562 4.2656 21.797 14.719 36.75 11.812 10.312-1.9688 19.5-10.266 27.328-24.656 4.7344-8.7188 15.656-11.953 24.422-7.1719 8.7188 4.7812 11.953 15.703 7.1719 24.422-13.312 24.422-30.984 38.812-52.5 42.844-19.922 3.7031-37.969-2.5781-50.25-9.0469-12.469 15.844-27.469 25.172-44.672 27.844-3.4219 0.51563-6.7969 0.75-10.031 0.75zm457.45 0c-2.5312 0-5.0156-0.51562-7.4062-1.5938-12.188-5.4844-23.156-13.078-32.578-22.594-3.7031-3.75-5.5781-8.9062-5.1562-14.109 0.42187-5.25 3.0938-10.031 7.3594-13.125 12.469-9.0469 25.688-13.5 38.109-13.266 7.7344 0.14063 14.531 5.25 16.828 12.609 3.8438 12.281 3.8906 25.312 0.1875 38.812-1.4062 5.0625-4.9688 9.2812-9.7031 11.484-2.4375 1.125-5.0625 1.6875-7.6875 1.6875zm43.922-27.141c-7.5469 0-14.578-4.7812-17.062-12.328-3.1406-9.4219 1.9688-19.641 11.438-22.781l3.7969-1.2656c9.4219-3.1875 19.594 1.9688 22.781 11.391 3.1406 9.4219-1.9688 19.641-11.438 22.781l-3.7969 1.2656c-1.875 0.60937-3.7969 0.9375-5.6719 0.9375zm-16.031-36.188c-4.2188 0-8.4375-1.4531-11.859-4.4531-7.5-6.5625-8.25-17.906-1.6875-25.406l2.625-3c6.5156-7.4531 17.906-8.25 25.406-1.6875s8.25 17.906 1.6875 25.406l-2.625 3c-3.5625 4.0781-8.5312 6.1406-13.547 6.1406zm-41.016-5.1562c-9.4688 0-17.438-7.4062-17.953-17.016l-0.23438-4.0312c-0.5625-9.9375 7.0312-18.422 16.969-18.984 10.172-0.65625 18.422 7.0781 18.984 16.969l0.23437 4.0312c0.5625 9.9375-7.0312 18.422-16.969 18.984-0.32812 0-0.65625 0.046876-1.0312 0.046876zm-543.47-65.906c-20.156 0-36.516-16.406-36.516-36.516 0-20.156 16.406-36.516 36.516-36.516 20.156 0 36.516 16.406 36.516 36.516 0 20.156-16.406 36.516-36.516 36.516zm226.36-48.094h-0.1875c-20.016-0.09375-36.281-16.359-36.375-36.375v-0.375c0.09375-20.062 16.453-36.328 36.516-36.328 20.156 0 36.516 16.406 36.516 36.516 0 20.062-16.312 36.422-36.328 36.516h-0.1875z"/>
</svg>
