<?xml version="1.0" encoding="UTF-8"?>
<svg width="1200pt" height="1200pt" version="1.1" viewBox="0 0 1200 1200" xmlns="http://www.w3.org/2000/svg">
 <path d="m1057.3 446.04c-2.5859-2.9141-6.3047-4.5742-10.199-4.5586h-284.16l-9.9609-134.04c0-5.8789-5.5195-143.16-83.16-242.16-2.5977-3.2461-6.5234-5.1328-10.68-5.1328s-8.0859 1.8867-10.68 5.1328c-50.309 66.688-81.73 145.7-90.961 228.72h-78.961c-9-138.72-61.199-223.8-63.48-228-2.0469-3.293-5.3867-5.5703-9.1992-6.2812-3.8125-0.70703-7.7461 0.22266-10.84 2.5625-112.32 84.359-141.72 236.64-143.04 243.72l-112.8 818.28c-0.59375 3.9766 0.58984 8.0156 3.2422 11.039 2.6484 2.9844 6.4492 4.6875 10.438 4.6797l682.8-5.6406c3.9688-0.039063 7.7305-1.7891 10.32-4.8008 2.6172-2.9922 3.7617-6.9961 3.1211-10.918l-46.082-318.24 216-31.441v0.003907c6.2969-0.73828 11.266-5.7031 12-12l30-300c0.38281-4.0039-0.97266-7.9805-3.7188-10.922zm-590.28 126.84c-33.238 0-60-40.32-60-90 0-49.68 26.879-90 60-90 33.121 0 60 40.32 60 90 0 49.68-26.758 90-60 90zm206.4 0c-33.238 0-60-40.32-60-90 0-49.68 26.879-90 60-90s60 40.32 60 90c0.003906 49.68-26.758 90-59.996 90z"/>
 <path d="m467.04 435.84c-17.398 0-31.441 21-31.441 47.039 0 26.039 14.039 47.039 31.441 47.039 17.398 0 31.441-21 31.441-47.039 0-26.039-14.039-47.039-31.441-47.039z"/>
 <path d="m673.44 435.84c-17.398 0-31.441 21-31.441 47.039 0 26.039 14.039 47.039 31.441 47.039 17.398 0 31.559-21 31.559-47.039 0-26.039-14.16-47.039-31.559-47.039z"/>
</svg>
