<?xml version="1.0" encoding="UTF-8"?>
<svg width="1200pt" height="1200pt" version="1.1" viewBox="0 0 1200 1200" xmlns="http://www.w3.org/2000/svg">
 <path d="m925.8 120h-651.72c-0.83984 0-1.9219 0-2.7617 0.23828-0.83984 0.23828-1.6797 0.60156-2.3984 0.83984-0.23828 0-0.23828 0.23828-0.23828 0.23828-1.0781 0.23828-2.1602 0.83984-3 1.6797-0.83984 0.60156-1.3203 1.0781-1.9219 1.9219-2.1602 2.1602-3.2383 5.3984-3.2383 8.7617v932.76c0 4.0781 1.9219 8.1602 5.1602 10.559 1.0781 0.83984 2.1602 1.3203 3.2383 1.9219 0.23828 0 0.60156 0.23828 0.83984 0.23828 1.4375 0.60156 3 0.83984 4.4375 0.83984h651.72c7.5586 0 13.559-6 13.559-13.559l0.003907-932.88c0-7.5586-6-13.559-13.68-13.559zm-283.8 846.6-354.24 82.68v-898.56l354.24 82.68z"/>
 <path d="m585.24 648.96c20.879 0 37.32-21.48 37.32-48.961s-16.441-48.961-37.32-48.961c-20.879 0-37.32 21.48-37.32 48.961 0.12109 27.48 16.441 48.961 37.32 48.961zm0-70.68c3.6016 0 10.078 8.2812 10.078 21.719 0 13.559-6.6016 21.719-10.078 21.719-3.4805 0-10.078-8.2812-10.078-21.719 0-13.559 6.6016-21.719 10.078-21.719z"/>
</svg>
