<?xml version="1.0" encoding="UTF-8"?>
<svg width="1200pt" height="1200pt" version="1.1" viewBox="0 0 1200 1200" xmlns="http://www.w3.org/2000/svg">
 <path d="m519.42 337.97c-17.625 1.875-20.391 15.75-20.391 29.672-0.9375 20.391 11.109 36.188 26.906 35.25 17.625-1.875 20.391-14.859 19.453-29.672-0.9375-23.156-9.2812-36.141-25.969-35.25zm147.47 141.89c-11.109-16.688-23.203-8.3438-35.25 0-21.328 15.75-43.594 19.453-65.859 0-9.2812-7.4062-20.391-8.3438-28.734 1.875-9.2812 9.2812-7.4062 19.453 1.875 29.672 15.75 16.688 35.25 21.328 60.281 21.328 17.625 0.9375 37.078-6.4688 54.703-17.625 12.047-8.3438 23.156-19.5 12.984-35.25zm9.2344-141.89c-20.391 2.7656-23.203 17.625-24.094 38.953-0.9375 12.047 2.7656 25.969 22.266 25.031 23.203 0 22.266-19.453 24.094-33.375 2.7656-17.625-8.3438-31.5-22.266-30.609zm0 0c-20.391 2.7656-23.203 17.625-24.094 38.953-0.9375 12.047 2.7656 25.969 22.266 25.031 23.203 0 22.266-19.453 24.094-33.375 2.7656-17.625-8.3438-31.5-22.266-30.609zm-9.2344 141.89c-11.109-16.688-23.203-8.3438-35.25 0-21.328 15.75-43.594 19.453-65.859 0-9.2812-7.4062-20.391-8.3438-28.734 1.875-9.2812 9.2812-7.4062 19.453 1.875 29.672 15.75 16.688 35.25 21.328 60.281 21.328 17.625 0.9375 37.078-6.4688 54.703-17.625 12.047-8.3438 23.156-19.5 12.984-35.25zm-147.47-141.89c-17.625 1.875-20.391 15.75-20.391 29.672-0.9375 20.391 11.109 36.188 26.906 35.25 17.625-1.875 20.391-14.859 19.453-29.672-0.9375-23.156-9.2812-36.141-25.969-35.25zm0 0c-17.625 1.875-20.391 15.75-20.391 29.672-0.9375 20.391 11.109 36.188 26.906 35.25 17.625-1.875 20.391-14.859 19.453-29.672-0.9375-23.156-9.2812-36.141-25.969-35.25zm147.47 141.89c-11.109-16.688-23.203-8.3438-35.25 0-21.328 15.75-43.594 19.453-65.859 0-9.2812-7.4062-20.391-8.3438-28.734 1.875-9.2812 9.2812-7.4062 19.453 1.875 29.672 15.75 16.688 35.25 21.328 60.281 21.328 17.625 0.9375 37.078-6.4688 54.703-17.625 12.047-8.3438 23.156-19.5 12.984-35.25zm9.2344-141.89c-20.391 2.7656-23.203 17.625-24.094 38.953-0.9375 12.047 2.7656 25.969 22.266 25.031 23.203 0 22.266-19.453 24.094-33.375 2.7656-17.625-8.3438-31.5-22.266-30.609zm0 0c-20.391 2.7656-23.203 17.625-24.094 38.953-0.9375 12.047 2.7656 25.969 22.266 25.031 23.203 0 22.266-19.453 24.094-33.375 2.7656-17.625-8.3438-31.5-22.266-30.609zm-9.2344 141.89c-11.109-16.688-23.203-8.3438-35.25 0-21.328 15.75-43.594 19.453-65.859 0-9.2812-7.4062-20.391-8.3438-28.734 1.875-9.2812 9.2812-7.4062 19.453 1.875 29.672 15.75 16.688 35.25 21.328 60.281 21.328 17.625 0.9375 37.078-6.4688 54.703-17.625 12.047-8.3438 23.156-19.5 12.984-35.25zm-147.47-141.89c-17.625 1.875-20.391 15.75-20.391 29.672-0.9375 20.391 11.109 36.188 26.906 35.25 17.625-1.875 20.391-14.859 19.453-29.672-0.9375-23.156-9.2812-36.141-25.969-35.25zm0 0c-17.625 1.875-20.391 15.75-20.391 29.672-0.9375 20.391 11.109 36.188 26.906 35.25 17.625-1.875 20.391-14.859 19.453-29.672-0.9375-23.156-9.2812-36.141-25.969-35.25zm147.47 141.89c-11.109-16.688-23.203-8.3438-35.25 0-21.328 15.75-43.594 19.453-65.859 0-9.2812-7.4062-20.391-8.3438-28.734 1.875-9.2812 9.2812-7.4062 19.453 1.875 29.672 15.75 16.688 35.25 21.328 60.281 21.328 17.625 0.9375 37.078-6.4688 54.703-17.625 12.047-8.3438 23.156-19.5 12.984-35.25zm9.2344-141.89c-20.391 2.7656-23.203 17.625-24.094 38.953-0.9375 12.047 2.7656 25.969 22.266 25.031 23.203 0 22.266-19.453 24.094-33.375 2.7656-17.625-8.3438-31.5-22.266-30.609zm0 0c-20.391 2.7656-23.203 17.625-24.094 38.953-0.9375 12.047 2.7656 25.969 22.266 25.031 23.203 0 22.266-19.453 24.094-33.375 2.7656-17.625-8.3438-31.5-22.266-30.609zm-9.2344 141.89c-11.109-16.688-23.203-8.3438-35.25 0-21.328 15.75-43.594 19.453-65.859 0-9.2812-7.4062-20.391-8.3438-28.734 1.875-9.2812 9.2812-7.4062 19.453 1.875 29.672 15.75 16.688 35.25 21.328 60.281 21.328 17.625 0.9375 37.078-6.4688 54.703-17.625 12.047-8.3438 23.156-19.5 12.984-35.25zm-147.47-141.89c-17.625 1.875-20.391 15.75-20.391 29.672-0.9375 20.391 11.109 36.188 26.906 35.25 17.625-1.875 20.391-14.859 19.453-29.672-0.9375-23.156-9.2812-36.141-25.969-35.25zm0 0c-17.625 1.875-20.391 15.75-20.391 29.672-0.9375 20.391 11.109 36.188 26.906 35.25 17.625-1.875 20.391-14.859 19.453-29.672-0.9375-23.156-9.2812-36.141-25.969-35.25zm147.47 141.89c-11.109-16.688-23.203-8.3438-35.25 0-21.328 15.75-43.594 19.453-65.859 0-9.2812-7.4062-20.391-8.3438-28.734 1.875-9.2812 9.2812-7.4062 19.453 1.875 29.672 15.75 16.688 35.25 21.328 60.281 21.328 17.625 0.9375 37.078-6.4688 54.703-17.625 12.047-8.3438 23.156-19.5 12.984-35.25zm9.2344-141.89c-20.391 2.7656-23.203 17.625-24.094 38.953-0.9375 12.047 2.7656 25.969 22.266 25.031 23.203 0 22.266-19.453 24.094-33.375 2.7656-17.625-8.3438-31.5-22.266-30.609zm0 0c-20.391 2.7656-23.203 17.625-24.094 38.953-0.9375 12.047 2.7656 25.969 22.266 25.031 23.203 0 22.266-19.453 24.094-33.375 2.7656-17.625-8.3438-31.5-22.266-30.609zm-9.2344 141.89c-11.109-16.688-23.203-8.3438-35.25 0-21.328 15.75-43.594 19.453-65.859 0-9.2812-7.4062-20.391-8.3438-28.734 1.875-9.2812 9.2812-7.4062 19.453 1.875 29.672 15.75 16.688 35.25 21.328 60.281 21.328 17.625 0.9375 37.078-6.4688 54.703-17.625 12.047-8.3438 23.156-19.5 12.984-35.25zm-147.47-141.89c-17.625 1.875-20.391 15.75-20.391 29.672-0.9375 20.391 11.109 36.188 26.906 35.25 17.625-1.875 20.391-14.859 19.453-29.672-0.9375-23.156-9.2812-36.141-25.969-35.25zm0 0c-17.625 1.875-20.391 15.75-20.391 29.672-0.9375 20.391 11.109 36.188 26.906 35.25 17.625-1.875 20.391-14.859 19.453-29.672-0.9375-23.156-9.2812-36.141-25.969-35.25zm147.47 141.89c-11.109-16.688-23.203-8.3438-35.25 0-21.328 15.75-43.594 19.453-65.859 0-9.2812-7.4062-20.391-8.3438-28.734 1.875-9.2812 9.2812-7.4062 19.453 1.875 29.672 15.75 16.688 35.25 21.328 60.281 21.328 17.625 0.9375 37.078-6.4688 54.703-17.625 12.047-8.3438 23.156-19.5 12.984-35.25zm9.2344-141.89c-20.391 2.7656-23.203 17.625-24.094 38.953-0.9375 12.047 2.7656 25.969 22.266 25.031 23.203 0 22.266-19.453 24.094-33.375 2.7656-17.625-8.3438-31.5-22.266-30.609zm0 0c-20.391 2.7656-23.203 17.625-24.094 38.953-0.9375 12.047 2.7656 25.969 22.266 25.031 23.203 0 22.266-19.453 24.094-33.375 2.7656-17.625-8.3438-31.5-22.266-30.609zm-44.484 141.89c-21.328 15.75-43.594 19.453-65.859 0-9.2812-7.4062-20.391-8.3438-28.734 1.875-9.2812 9.2812-7.4062 19.453 1.875 29.672 15.75 16.688 35.25 21.328 60.281 21.328 17.625 0.9375 37.078-6.4688 54.703-17.625 12.047-8.3438 23.203-19.453 12.984-35.25-11.156-16.688-23.203-8.3438-35.25 0zm-86.25-106.64c-0.9375-23.203-9.2812-36.188-25.969-35.25-17.625 1.875-20.391 15.75-20.391 29.672-0.9375 20.391 11.109 36.188 26.906 35.25 17.625-1.8281 20.391-14.812 19.453-29.672zm514.64 571.22c-7.4062-38.953-15.75-77.906-23.203-116.86-18.562-92.719-71.391-152.06-160.4-180.79-41.719-13.922-85.312-20.391-127.03-29.672-7.4062-1.875-17.625 0-19.453-12.047-1.875-11.109-4.6406-19.453 5.5781-28.734 32.438-28.734 51-65.859 62.109-106.64 3.7031-11.109 6.4688-14.812 19.453-16.688 28.734-1.875 49.125-19.453 58.406-46.359 11.109-28.734 9.2812-56.578-12.984-79.734-5.5781-6.4688-7.4062-11.109-8.3438-18.562-2.7656-38.953-6.4688-78.797-21.328-115.92-36.188-86.25-124.26-140.02-233.68-140.02-12.984-0.9375-27.797 1.875-42.656 3.7031-125.21 13.922-219.74 124.26-206.76 248.53 0.9375 7.4062 0.9375 13.922-6.4688 20.391-25.969 23.203-23.203 52.875-13.922 81.609 8.3438 28.734 29.672 45.422 59.344 47.297 9.2812 0 12.047 2.7656 13.922 11.109 12.047 42.656 30.609 80.672 63.047 110.34 11.109 10.219 5.5781 22.266 4.6406 32.438-1.875 10.219-12.047 8.3438-19.453 9.2812-30.609 6.4688-62.109 10.219-92.719 18.562-82.547 21.328-153 61.219-182.68 148.36-19.453 56.578-29.672 115.92-37.078 176.21-4.6406 38.953 20.391 64.922 60.281 67.688 7.4062 0 15.75 0.9375 23.203 0 12.984-1.875 20.391-1.875 22.266 15.75 1.8281 13.922 11.109 27.797 19.453 39.891 39.891 54.703 104.77 77.906 160.4 37.078 8.3438-6.4688 12.047-0.9375 17.625 0.9375 95.484 39.891 191.95 45.422 288.37 6.4688 23.203-8.3438 42.656-15.75 62.109 3.7031 2.7656 1.875 6.4688 2.7656 10.219 3.7031 52.875 18.562 121.45-14.812 144.66-76.969 10.219-27.844 22.266-31.547 48.234-31.547 49.078 1.875 75.047-34.266 64.828-82.5zm-216.98-571.22c0 17.625-4.6406 32.438-22.266 39.891-6.4688 3.7031-13.922 4.6406-11.109-8.3438 1.875-9.2812 1.875-19.453 2.7656-29.672v-27.844c14.859 3.7031 31.547 4.6406 30.609 25.969zm-453.52 41.625c-3 1.0781-6.8906-0.046875-9.8438-1.6875-21.375-11.953-28.969-54.844-0.375-63.422 3.9844-1.2188 9.0469 0.046875 10.875 3.7969 0.75 1.5469 0.84375 3.2812 0.9375 5.0156 0.84375 15.422 1.7344 30.797 2.5781 46.219 0.1875 3 0.23438 6.3281-1.7812 8.5312-0.65625 0.75-1.5 1.2656-2.3906 1.5469zm1.9219-110.25c-18.562-102.94 63.984-200.29 181.74-212.34 113.11-11.109 242.95 46.359 241.08 216.05-15.75-21.328-37.078-30.609-60.281-38.016-36.188-11.109-61.219-36.188-79.734-67.688-3.7031-6.4688-7.4062-12.984-11.109-18.562-12.984-21.328-24.094-23.203-39.891-4.6406-37.078 41.719-82.547 69.562-137.26 81.609-18.562 4.6406-36.188 9.2812-54.703 10.219-21.281 1.875-34.266 11.156-39.844 33.375zm71.438 204c-32.438-59.344-32.438-123.32-30.609-188.26 0-16.688 13.922-11.109 22.266-12.047 49.172-9.2812 96.422-23.203 139.08-51 15.75-10.219 30.609-21.328 44.531-37.078 27.797 48.234 66.75 79.734 119.62 92.719 7.4062 1.875 14.859 4.6406 14.859 14.859 2.7656 69.562-1.875 136.31-41.719 195.66-68.672 100.12-208.69 91.781-268.03-14.859zm227.16 104.81c5.5781 52.875-18.562 81.609-75.094 86.25-18.562 1.8281-37.078-0.9375-54.703-5.5781-41.719-12.047-56.578-35.25-51-82.547 77.859 32.484 118.69 25.031 180.79 1.875zm-338.44 490.5c-37.078-8.3438-71.391-48.234-74.203-87.188-0.9375-10.219-1.875-19.453-3.7031-32.438 0.9375-4.6406 0.9375-12.047 2.7656-18.562 1.875-11.109 8.3438-19.453 19.453-19.453 12.047 0 8.3438 12.047 11.109 19.453 1.875 5.5781 3.7031 11.109 4.6406 16.688 3.7031 17.625 12.047 25.031 31.547 21.328 33.375-5.5781 67.688 16.688 71.391 43.594 5.5781 36.188-25.922 64.922-63 56.578zm392.21-42.656c0.9375 17.625-4.6406 25.031-20.391 31.547-88.078 35.25-175.26 32.438-263.34-2.7656-7.4062-3.7031-10.219-7.4062-9.2812-15.75 8.3438-59.344-28.734-100.12-90.891-106.64-12.047-0.9375-15.75-5.5781-17.625-15.75-1.875-14.812-7.4062-28.734-13.922-43.594 180.84 40.781 359.76 40.781 537.84-0.9375 1.875 4.6406-5.5781 6.4688-6.4688 11.109-0.9375 38.016-22.266 51-57.469 58.406-38.953 8.3438-60.281 42.656-58.453 84.375zm-414.47-199.36c25.031-21.328 56.578-26.906 86.25-31.547 127.03-20.391 255-19.453 381.1 3.7031 33.375 5.5781 52.875 13.922 67.688 27.844-51 51-464.58 54.703-535.03 0zm519.28 240.19c-25.969 9.2812-57.469-5.5781-64.922-28.734-9.2812-27.797 3.7031-55.641 33.375-64.922 12.047-3.7031 24.094-8.3438 38.016-4.6406 15.75 4.6406 24.094-2.7656 26.906-18.562 1.8281-8.3438 2.7656-16.688 5.5781-24.094 2.7656-5.5781-0.9375-14.812 8.3438-15.75s16.688 2.7656 21.328 11.109c5.5781 9.2812 7.4062 20.391 6.4688 31.547-0.9375 61.172-22.266 94.547-75.094 114.05zm167.81-117.8c-15.75 10.219-34.312 6.4688-51.938 3.7031-7.4062-0.9375-4.6406-7.4062-4.6406-12.047 0-26.906-12.984-45.422-35.25-60.281-13.922-10.219-13.922-27.797-16.688-42.656-3.7031-27.844-17.625-46.359-42.656-56.578-43.594-18.562-89.016-25.031-135.37-30.609-44.484-4.6406-89.953-5.5781-126.1-4.6406-89.953 0-169.69 1.875-247.6 25.969-14.812 4.6406-29.672 10.219-42.656 19.453-12.047 7.4062-17.625 18.562-19.453 33.375-2.7656 25.031-5.5781 49.125-32.438 63.984-17.625 9.2812-24.094 29.672-23.203 50.062 0.9375 12.047-3.7031 15.75-15.75 16.688-9.2812 0-18.562 0-27.797-0.9375-15.75-2.7656-24.094-12.047-20.391-26.906 12.047-55.641 17.625-113.11 36.141-166.92 22.266-62.109 70.453-96.422 130.74-116.86 38.953-12.984 79.734-17.625 118.69-25.969 4.6406-0.9375 8.3438-1.875 12.047 4.6406 25.031 57.469 79.734 88.078 142.78 80.672 29.672-3.7031 58.406-13.922 82.547-32.438 12.047-8.3438 24.094-17.625 25.969-30.609 5.5781-25.031 18.562-23.203 37.078-17.625 33.375 8.3438 66.75 12.984 100.12 23.203 80.672 24.094 127.03 77.906 140.95 160.4 6.4688 34.312 14.812 68.625 20.391 102.94 2.8125 13.125 9.3281 29.812-5.5312 39.984zm-342.14-582.32c23.203 0 22.266-19.453 24.094-33.375 2.7656-17.625-8.3438-31.547-22.266-30.609-20.391 2.7656-23.203 17.625-24.094 38.953-0.9375 12.047 2.7656 25.969 22.266 25.031zm-135.37 109.45c15.75 16.688 35.25 21.328 60.281 21.328 17.625 0.9375 37.078-6.4688 54.703-17.625 12.047-8.3438 23.203-19.453 12.984-35.25-11.109-16.688-23.203-8.3438-35.25 0-21.328 15.75-43.594 19.453-65.859 0-9.2812-7.4062-20.391-8.3438-28.734 1.875-9.2812 9.2812-7.4062 19.453 1.875 29.672zm-12.984-108.52c17.625-1.875 20.391-14.859 19.453-29.672-0.9375-23.203-9.2812-36.188-25.969-35.25-17.625 1.875-20.391 15.75-20.391 29.672-0.9375 20.438 11.109 36.188 26.906 35.25zm-6.5156-64.922c-17.625 1.875-20.391 15.75-20.391 29.672-0.9375 20.391 11.109 36.188 26.906 35.25 17.625-1.875 20.391-14.859 19.453-29.672-0.9375-23.156-9.2812-36.141-25.969-35.25zm147.47 141.89c-11.109-16.688-23.203-8.3438-35.25 0-21.328 15.75-43.594 19.453-65.859 0-9.2812-7.4062-20.391-8.3438-28.734 1.875-9.2812 9.2812-7.4062 19.453 1.875 29.672 15.75 16.688 35.25 21.328 60.281 21.328 17.625 0.9375 37.078-6.4688 54.703-17.625 12.047-8.3438 23.156-19.5 12.984-35.25zm9.2344-141.89c-20.391 2.7656-23.203 17.625-24.094 38.953-0.9375 12.047 2.7656 25.969 22.266 25.031 23.203 0 22.266-19.453 24.094-33.375 2.7656-17.625-8.3438-31.5-22.266-30.609zm0 0c-20.391 2.7656-23.203 17.625-24.094 38.953-0.9375 12.047 2.7656 25.969 22.266 25.031 23.203 0 22.266-19.453 24.094-33.375 2.7656-17.625-8.3438-31.5-22.266-30.609zm-9.2344 141.89c-11.109-16.688-23.203-8.3438-35.25 0-21.328 15.75-43.594 19.453-65.859 0-9.2812-7.4062-20.391-8.3438-28.734 1.875-9.2812 9.2812-7.4062 19.453 1.875 29.672 15.75 16.688 35.25 21.328 60.281 21.328 17.625 0.9375 37.078-6.4688 54.703-17.625 12.047-8.3438 23.156-19.5 12.984-35.25zm-147.47-141.89c-17.625 1.875-20.391 15.75-20.391 29.672-0.9375 20.391 11.109 36.188 26.906 35.25 17.625-1.875 20.391-14.859 19.453-29.672-0.9375-23.156-9.2812-36.141-25.969-35.25zm0 0c-17.625 1.875-20.391 15.75-20.391 29.672-0.9375 20.391 11.109 36.188 26.906 35.25 17.625-1.875 20.391-14.859 19.453-29.672-0.9375-23.156-9.2812-36.141-25.969-35.25zm147.47 141.89c-11.109-16.688-23.203-8.3438-35.25 0-21.328 15.75-43.594 19.453-65.859 0-9.2812-7.4062-20.391-8.3438-28.734 1.875-9.2812 9.2812-7.4062 19.453 1.875 29.672 15.75 16.688 35.25 21.328 60.281 21.328 17.625 0.9375 37.078-6.4688 54.703-17.625 12.047-8.3438 23.156-19.5 12.984-35.25zm9.2344-141.89c-20.391 2.7656-23.203 17.625-24.094 38.953-0.9375 12.047 2.7656 25.969 22.266 25.031 23.203 0 22.266-19.453 24.094-33.375 2.7656-17.625-8.3438-31.5-22.266-30.609zm0 0c-20.391 2.7656-23.203 17.625-24.094 38.953-0.9375 12.047 2.7656 25.969 22.266 25.031 23.203 0 22.266-19.453 24.094-33.375 2.7656-17.625-8.3438-31.5-22.266-30.609zm-9.2344 141.89c-11.109-16.688-23.203-8.3438-35.25 0-21.328 15.75-43.594 19.453-65.859 0-9.2812-7.4062-20.391-8.3438-28.734 1.875-9.2812 9.2812-7.4062 19.453 1.875 29.672 15.75 16.688 35.25 21.328 60.281 21.328 17.625 0.9375 37.078-6.4688 54.703-17.625 12.047-8.3438 23.156-19.5 12.984-35.25zm-147.47-141.89c-17.625 1.875-20.391 15.75-20.391 29.672-0.9375 20.391 11.109 36.188 26.906 35.25 17.625-1.875 20.391-14.859 19.453-29.672-0.9375-23.156-9.2812-36.141-25.969-35.25zm0 0c-17.625 1.875-20.391 15.75-20.391 29.672-0.9375 20.391 11.109 36.188 26.906 35.25 17.625-1.875 20.391-14.859 19.453-29.672-0.9375-23.156-9.2812-36.141-25.969-35.25zm147.47 141.89c-11.109-16.688-23.203-8.3438-35.25 0-21.328 15.75-43.594 19.453-65.859 0-9.2812-7.4062-20.391-8.3438-28.734 1.875-9.2812 9.2812-7.4062 19.453 1.875 29.672 15.75 16.688 35.25 21.328 60.281 21.328 17.625 0.9375 37.078-6.4688 54.703-17.625 12.047-8.3438 23.156-19.5 12.984-35.25zm9.2344-141.89c-20.391 2.7656-23.203 17.625-24.094 38.953-0.9375 12.047 2.7656 25.969 22.266 25.031 23.203 0 22.266-19.453 24.094-33.375 2.7656-17.625-8.3438-31.5-22.266-30.609zm0 0c-20.391 2.7656-23.203 17.625-24.094 38.953-0.9375 12.047 2.7656 25.969 22.266 25.031 23.203 0 22.266-19.453 24.094-33.375 2.7656-17.625-8.3438-31.5-22.266-30.609zm-9.2344 141.89c-11.109-16.688-23.203-8.3438-35.25 0-21.328 15.75-43.594 19.453-65.859 0-9.2812-7.4062-20.391-8.3438-28.734 1.875-9.2812 9.2812-7.4062 19.453 1.875 29.672 15.75 16.688 35.25 21.328 60.281 21.328 17.625 0.9375 37.078-6.4688 54.703-17.625 12.047-8.3438 23.156-19.5 12.984-35.25zm-147.47-141.89c-17.625 1.875-20.391 15.75-20.391 29.672-0.9375 20.391 11.109 36.188 26.906 35.25 17.625-1.875 20.391-14.859 19.453-29.672-0.9375-23.156-9.2812-36.141-25.969-35.25zm0 0c-17.625 1.875-20.391 15.75-20.391 29.672-0.9375 20.391 11.109 36.188 26.906 35.25 17.625-1.875 20.391-14.859 19.453-29.672-0.9375-23.156-9.2812-36.141-25.969-35.25zm147.47 141.89c-11.109-16.688-23.203-8.3438-35.25 0-21.328 15.75-43.594 19.453-65.859 0-9.2812-7.4062-20.391-8.3438-28.734 1.875-9.2812 9.2812-7.4062 19.453 1.875 29.672 15.75 16.688 35.25 21.328 60.281 21.328 17.625 0.9375 37.078-6.4688 54.703-17.625 12.047-8.3438 23.156-19.5 12.984-35.25zm9.2344-141.89c-20.391 2.7656-23.203 17.625-24.094 38.953-0.9375 12.047 2.7656 25.969 22.266 25.031 23.203 0 22.266-19.453 24.094-33.375 2.7656-17.625-8.3438-31.5-22.266-30.609zm0 0c-20.391 2.7656-23.203 17.625-24.094 38.953-0.9375 12.047 2.7656 25.969 22.266 25.031 23.203 0 22.266-19.453 24.094-33.375 2.7656-17.625-8.3438-31.5-22.266-30.609zm-9.2344 141.89c-11.109-16.688-23.203-8.3438-35.25 0-21.328 15.75-43.594 19.453-65.859 0-9.2812-7.4062-20.391-8.3438-28.734 1.875-9.2812 9.2812-7.4062 19.453 1.875 29.672 15.75 16.688 35.25 21.328 60.281 21.328 17.625 0.9375 37.078-6.4688 54.703-17.625 12.047-8.3438 23.156-19.5 12.984-35.25zm-147.47-141.89c-17.625 1.875-20.391 15.75-20.391 29.672-0.9375 20.391 11.109 36.188 26.906 35.25 17.625-1.875 20.391-14.859 19.453-29.672-0.9375-23.156-9.2812-36.141-25.969-35.25z"/>
</svg>
