<?xml version="1.0" encoding="UTF-8"?>
<svg width="1200pt" height="1200pt" version="1.1" viewBox="0 0 1200 1200" xmlns="http://www.w3.org/2000/svg">
 <path d="m483.89 479.06c-16.031 27.75-46.031 46.453-80.344 46.453s-64.312-18.703-80.391-46.453c-5.1562-8.9531-16.641-12-25.594-6.7969-8.9531 5.1562-12.047 16.641-6.8438 25.594 22.547 38.953 64.641 65.156 112.83 65.156 48.141 0 90.281-26.203 112.83-65.156 5.1562-8.9531 2.1094-20.438-6.8438-25.594-8.9531-5.2031-20.438-2.1562-25.641 6.7969z" fill-rule="evenodd"/>
 <path d="m347.76 404.81c0 37.172-55.781 37.172-55.781 0 0-37.219 55.781-37.219 55.781 0" fill-rule="evenodd"/>
 <path d="m515.06 404.81c0 37.172-55.734 37.172-55.734 0 0-37.219 55.734-37.219 55.734 0" fill-rule="evenodd"/>
 <path d="m683.63 497.86c22.547 38.953 64.688 65.156 112.83 65.156 48.188 0 90.281-26.203 112.83-65.156 5.2031-8.9531 2.1094-20.438-6.8438-25.594-8.9531-5.2031-20.438-2.1562-25.594 6.7969-16.078 27.75-46.078 46.453-80.391 46.453s-64.312-18.703-80.344-46.453c-5.2031-8.9531-16.688-12-25.641-6.7969-8.9531 5.1562-12 16.641-6.8438 25.594z" fill-rule="evenodd"/>
 <path d="m852.24 404.81c0 37.172 55.781 37.172 55.781 0 0-37.219-55.781-37.219-55.781 0" fill-rule="evenodd"/>
 <path d="m684.94 404.81c0 37.172 55.734 37.172 55.734 0 0-37.219-55.734-37.219-55.734 0" fill-rule="evenodd"/>
 <path d="m124.69 981.28h950.63c10.359 0 18.75-8.4375 18.75-18.75v-146.06h1.4062c17.812 0 34.875-7.0312 47.438-19.641 12.562-12.562 19.594-29.578 19.594-47.344v-73.359c0-17.766-7.0312-34.781-19.594-47.344s-29.625-19.641-47.438-19.641h-31.594c-6.0938 0-12.094 0.51562-17.859 1.5-21.188-22.734-48.188-39.984-78.609-49.359 27-35.812 42.984-80.344 42.984-128.63 0-118.03-95.859-213.94-213.94-213.94-87.984 0-163.6 53.25-196.45 129.19-32.859-75.938-108.47-129.19-196.45-129.19-118.08 0-213.94 95.906-213.94 213.94 0 48.281 15.984 92.812 42.984 128.63-30.422 9.375-57.422 26.625-78.609 49.359-5.7656-0.98438-11.766-1.5-17.859-1.5h-31.594c-17.812 0-34.875 7.0781-47.438 19.641s-19.594 29.578-19.594 47.344v73.359c0 17.766 7.0312 34.781 19.594 47.344 12.562 12.609 29.625 19.641 47.438 19.641h1.4062v146.06c0 10.312 8.3906 18.75 18.75 18.75zm529.97-388.45c-67.125 11.297-118.31 69.703-118.31 140.06v210.89h380.81v-176.44c0-10.359 8.3906-18.75 18.75-18.75 10.312 0 18.75 8.3906 18.75 18.75v176.44h101.91v-127.55c-53.812-3.75-96.328-48.609-96.328-103.41v-0.046874c0-36.562 18.891-68.625 47.438-87.094-19.266-16.781-43.125-28.406-69.422-32.859-37.781 33.469-87.422 53.812-141.79 53.812-54.371 0-104.02-20.344-141.79-53.812zm-109.31 0c-37.781 33.469-87.422 53.812-141.79 53.812-54.371 0-104.02-20.344-141.79-53.812-26.297 4.4531-50.156 16.078-69.422 32.859 28.547 18.469 47.438 50.531 47.438 87.094v0.046875c0 54.797-42.516 99.656-96.328 103.41v127.55h101.91v-176.44c0-10.359 8.4375-18.75 18.75-18.75 10.359 0 18.75 8.3906 18.75 18.75v176.44h216v-210.89c0-54.516 24.375-103.41 62.766-136.31-5.2969-1.5469-10.734-2.8125-16.266-3.75zm452.39 119.95c0-36.562 29.625-66.141 66.141-66.141h31.594c7.875 0 15.375 3.0938 20.906 8.625s8.625 13.078 8.625 20.859v73.359c0 7.8281-3.0938 15.328-8.625 20.859s-13.031 8.625-20.906 8.625h-31.594c-36.516 0-66.141-29.625-66.141-66.141zm-795.47 0v0.046875c0 36.516-29.625 66.141-66.141 66.141h-31.594c-7.875 0-15.375-3.0938-20.906-8.625s-8.625-13.031-8.625-20.859v-73.359c0-7.7812 3.0938-15.328 8.625-20.859s13.031-8.625 20.906-8.625h31.594c36.516 0 66.141 29.578 66.141 66.141zm201.28-456.56c97.359 0 176.44 79.125 176.44 176.44 0 97.406-79.078 176.48-176.44 176.48-97.406 0-176.44-79.078-176.44-176.48 0-97.312 79.031-176.44 176.44-176.44zm392.9 0c97.406 0 176.44 79.125 176.44 176.44 0 97.406-79.031 176.48-176.44 176.48-97.359 0-176.44-79.078-176.44-176.48 0-97.312 79.078-176.44 176.44-176.44zm-196.45 261.24c-6.7969 15.703-15.375 30.375-25.5 43.828 8.8125 2.7188 17.344 6.0938 25.5 10.078 8.1562-3.9844 16.688-7.3594 25.5-10.078-10.125-13.453-18.703-28.125-25.5-43.828z" fill-rule="evenodd"/>
</svg>
