<?xml version="1.0" encoding="UTF-8"?>
<svg width="1200pt" height="1200pt" version="1.1" viewBox="0 0 1200 1200" xmlns="http://www.w3.org/2000/svg">
 <path d="m255.17 401.73c-13.48 0-27.148 6.6016-35.266 20.906l-120 211.59c-18.133 34.934 32.785 64.52 57.641 25.828l80.625-113.88-22.359 137.77-31.453 289.44c1.8672 37.078 73.055 36.895 77.348 0l44.586-188.89c0.76172-5.9609 4.8008-11.039 11.039-11.039 6.1875 0 10.281 5.0781 10.973 11.039l22.293 188.89c4.375 36.895 75.48 37.078 77.375 0l-9.1719-267.08 22.293-228.75h38.465l19.934 38.254v168.12l-31.453 289.44c1.8672 37.078 72.973 36.895 77.348 0l44.586-211.16c0.69141-6.0391 4.8008-11.055 10.973-11.055 6.2539 0 10.293 5.0117 10.988 11.055l44.641 211.16c4.3203 36.895 75.426 37.078 77.375 0l-31.551-289.42v-168.13l20-38.254h36.535l22.293 228.75-9.1719 267.08c1.8789 37.078 73 36.895 77.375 0l22.293-188.89c0.69141-5.9609 4.7852-11.039 11.039-11.039 6.1875 0 10.199 5.0781 10.895 11.039l44.652 188.89c4.375 36.895 75.414 37.078 77.375 0l-31.551-289.44-22.293-137.77 80.625 113.88c24.867 38.68 75.773 9.1055 57.652-25.828l-120-211.59c-8.1211-14.309-21.879-20.906-35.359-20.906h-16.652c-19.52 11.801-42.988 18.613-67.719 18.613-24.707 0-48.199-6.8125-67.691-18.613h-124.04c-19.52 11.801-42.922 18.613-67.719 18.613-24.707 0-48.121-6.8125-67.625-18.613h-126.04c-19.453 11.801-42.988 18.613-67.719 18.613-24.707 0-48.121-6.8125-67.625-18.613h-16.758z" fill-rule="evenodd"/>
 <path d="m339.62 198.55c52.574 0 94.934 36.172 94.934 81.105v33.188c0 44.945-42.359 81.121-94.934 81.121-52.641 0-95-36.172-95-81.121v-33.188c-0.011719-44.918 42.363-81.105 95-81.105z" fill-rule="evenodd"/>
 <path d="m860.39 198.55c-52.574 0-94.934 36.172-94.934 81.105v33.188c0 44.945 42.359 81.121 94.934 81.121 52.641 0 95-36.172 95-81.121v-33.188c0-44.918-42.359-81.105-95-81.105z" fill-rule="evenodd"/>
 <path d="m600.93 198.55c52.641 0 95 36.172 95 81.105v33.188c0 44.945-42.359 81.121-95 81.121-52.574 0-94.922-36.172-94.922-81.121v-33.188c0.015625-44.918 42.363-81.105 94.922-81.105z" fill-rule="evenodd"/>
</svg>
