<?xml version="1.0" encoding="UTF-8"?>
<svg width="1200pt" height="1200pt" version="1.1" viewBox="0 0 1200 1200" xmlns="http://www.w3.org/2000/svg">
 <path d="m846.74 593.96c-4.2812-18.895-7.4297-32.246-9.4453-40.055-2.2695-7.8086-7.4336-21.664-15.492-41.562-8.0625-19.902-17.258-37.031-27.586-51.391-10.578-14.609-36.02-34.512-76.324-59.699-40.559-25.191-75.07-37.785-103.54-37.785s-58.566 7.3047-90.309 21.914c-31.738 14.359-56.805 29.727-75.191 46.098-18.641 16.121-36.148 36.273-52.523 60.457-16.625 23.934-27.707 46.73-33.25 68.395-5.793 21.41-8.4414 44.082-7.9375 68.012 0.50391 23.68 3.1523 43.707 7.9375 60.082 4.7852 16.371 12.719 33.5 23.805 51.387 10.832 17.633 20.656 32.496 29.473 44.586 8.5664 11.84 23.426 26.703 44.586 44.59 21.16 17.633 62.223 28.844 123.18 33.629 25.945-0.75781 52.395-3.7812 79.348-9.0703 24.941-5.543 46.605-12.594 64.992-21.16 17.383-8.3125 33.754-19.898 49.121-34.762 15.113-14.863 25.441-24.562 30.984-29.094 5.2891-4.7891 13.98-22.672 26.074-53.656 12.09-30.984 18.137-54.16 18.137-69.527 0-15.617-2.0156-32.746-6.0469-51.387m-313.62-64.992 15.113-20.781c4.0312-3.5273 8.0625-3.9062 12.094-1.1367 4.5312 3.5273 5.4141 8.0625 2.6445 13.605l-16.25 21.914 24.562 24.562c3.0234 4.5352 2.6445 8.6914-1.1328 12.469-3.7812 3.7773-8.3125 3.7773-13.605 0l-21.16-21.16-17.758 24.938c-1.7617 2.5195-4.2812 3.5273-7.5586 3.0234-2.2656 0.25391-4.1562-0.25-5.668-1.5117-1.7617-1.2578-2.8945-2.8945-3.3984-4.9102-1.5117-2.5195-1.0078-5.293 1.5117-8.3125l19.27-26.828-19.648-19.648c-2.5195-2.5195-3.2734-5.293-2.2656-8.3125 0.50391-2.0156 1.5117-3.7812 3.0195-5.293 1.2617-1.2578 2.8984-2.1406 4.9141-2.6445 3.0234-1.0078 5.668-0.125 7.9336 2.6445l17.383 17.383m120.54-18.137c3.0234-1.0078 5.668-0.125 7.9375 2.6445l17.379 17.383 15.117-20.785c4.0273-3.5234 8.0586-3.9023 12.09-1.1328 4.5352 3.5273 5.4141 8.0625 2.6445 13.602l-15.871 22.297 24.184 24.18c3.0234 4.5352 2.6445 8.6914-1.1328 12.473-3.7773 3.7773-8.3125 3.7773-13.602 0l-20.785-20.785-18.137 24.562c-1.7617 2.5195-4.2812 3.5273-7.5547 3.0234-2.2695 0.25-4.1562-0.25391-5.668-1.5117-1.7656-1.2617-2.8984-2.8984-3.4023-4.9141-1.5117-2.5195-1.0078-5.2891 1.5117-8.3125l19.27-26.828-19.648-19.648c-2.5195-2.5195-3.2734-5.2891-2.2656-8.3125 0.50391-2.0156 1.5117-3.7773 3.0234-5.2891 1.2578-1.2617 2.8945-2.1406 4.9102-2.6445m-142.07 167.01c2.0156-0.25 3.5273 0 4.5352 0.75781h207.45c1.2578-0.75781 2.1406-1.0078 2.6445-0.75781 9.3203-4.0312 13.98-1.5117 13.98 7.5586 0 2.5195-0.62891 4.7852-1.8906 6.8008-2.2656 3.5273-6.0469 5.2891-11.336 5.2891h-22.293l0.37891 1.1328c1.2578 5.0391 1.8867 9.5742 1.8867 13.605 0 8.3125-3.2734 18.137-9.8242 29.473-9.5703 16.371-22.543 24.559-38.918 24.559-20.152 0-35.141-9.4453-44.965-28.34-6.2969-11.84-10.957-25.316-13.98-40.43h-88.418c-5.793 0.75781-9.3203 0-10.582-2.2656-2.5195-2.2695-3.9023-3.6523-4.1562-4.1562l-0.375-0.37891c-2.7734-3.5273-3.6562-6.1719-2.6484-7.9336 1.5117-3.7812 2.3945-5.7969 2.6484-6.0469l6.043 0.75391c3.0234 0.25391 6.2969 0.37891 9.8242 0.37891m178.35 37.785c1.2461-3.7031 1.4961-6.6016 0.75391-8.6914-0.50391-2.0664-0.37891-5.2148 0.37891-9.4453h-32.875c1.0234 2.168 1.3984 4.4336 1.1328 6.8008-0.015625 2.3047 0.23438 5.7031 0.75781 10.203 0.80078 4.5469-1.2148 5.9297-6.0469 4.1562-4.6055-1.543-8.0078-5.3203-10.203-11.336-1.9883-5.7812-2.9961-8.8047-3.0234-9.0664-2.0117 0-2.8945-0.25391-2.6445-0.75781h-20.781c0.80078 5.9805 3.6992 15.934 8.6914 29.852 5.0156 13.906 13.832 20.961 26.449 21.16 12.852 0.16016 21.922-4.375 27.207-13.602 5.5469-8.9453 8.9492-15.367 10.203-19.273z"/>
</svg>
