<?xml version="1.0" encoding="UTF-8"?>
<svg width="1200pt" height="1200pt" version="1.1" viewBox="0 0 1200 1200" xmlns="http://www.w3.org/2000/svg">
 <path d="m399.6 537.6c8.3984 10.801 14.398 24 14.398 37.199v195.6c0 3.6016 0 7.1992-1.1992 9.6016l-13.199 72c-1.1992 8.3984-9.6016 12-16.801 8.3984l-96-51.602c-37.199-20.398-84-2.3984-98.398 38.398-10.801 32.398 6 68.398 36 84l190.8 103.2c19.199 10.801 43.199 10.801 62.398 1.1992 20.398-9.6016 33.602-27.602 38.398-49.199l24-135.6c2.3984-13.199 13.199-22.801 27.602-22.801h75.602c12 0 21.602 7.1992 26.398 18l30 84c3.6016 8.3984 0 19.199-7.1992 24l-121.2 90.004c-27.602 20.398-38.398 57.602-22.801 87.602 13.199 25.199 37.199 38.398 61.199 38.398 14.398 0 28.801-4.8008 40.801-14.398l175.2-132c24-18 33.602-49.199 24-78l-58.797-165.6c-2.3984-6-3.6016-12-3.6016-19.199v-186c0-13.199 4.8008-26.398 14.398-37.199l206.4-241.2c25.199-28.801 21.602-72-7.1992-97.199s-72-21.602-97.199 7.1992l-159.6 187.2c-19.199 22.801-46.801 34.801-76.801 34.801l-134.4-0.003906c-28.801 0-57.602-13.199-76.801-34.801l-160.8-187.2c-25.199-28.801-68.398-32.398-97.199-7.1992s-32.398 68.398-7.1992 97.199z"/>
 <path d="m766.8 196.8c0 92.121-74.68 166.8-166.8 166.8s-166.8-74.68-166.8-166.8c0-92.121 74.68-166.8 166.8-166.8s166.8 74.68 166.8 166.8z"/>
</svg>
