<?xml version="1.0" encoding="UTF-8"?>
<svg width="1200pt" height="1200pt" version="1.1" viewBox="0 0 1200 1200" xmlns="http://www.w3.org/2000/svg">
 <path d="m995.81 302.48h-87.422v-35.203c0-6.7969-5.4844-12.281-12.281-12.281h-61.031c-6.7969 0-12.281 5.4844-12.281 12.281v35.203h-445.6v-35.203c0-6.7969-5.4844-12.281-12.281-12.281h-61.031c-6.7969 0-12.281 5.4844-12.281 12.281v35.203h-87.422c-6.7969 0-12.281 5.4844-12.281 12.281v618c0 6.7969 5.4844 12.281 12.281 12.281l791.63-0.046875c6.7969 0 12.281-5.4844 12.281-12.281v-617.95c0-6.7969-5.4844-12.281-12.281-12.281zm-148.45-22.922h36.469v70.406h-36.469zm-531.19 0h36.469v70.406h-36.469zm-99.703 47.484h75.188v35.203c0 6.7969 5.4844 12.281 12.281 12.281h61.031c6.7969 0 12.281-5.4844 12.281-12.281v-35.203h445.6v35.203c0 6.7969 5.4844 12.281 12.281 12.281h61.031c6.7969 0 12.281-5.4844 12.281-12.281v-35.203h75.188v128.68l-767.16-0.046875v-128.68zm767.06 593.44-767.06-0.046875v-440.21h767.06zm-383.53-130.03c49.641 0 90.047-40.406 90.047-90.047s-40.406-90.047-90.047-90.047c-49.641 0-90.047 40.406-90.047 90.047 0 49.688 40.406 90.047 90.047 90.047zm0-155.58c36.141 0 65.531 29.391 65.531 65.531s-29.391 65.531-65.531 65.531c-36.141 0-65.531-29.391-65.531-65.531s29.391-65.531 65.531-65.531zm-12.281-55.594v-40.641c0-6.7969 5.4844-12.281 12.281-12.281 6.7969 0 12.281 5.4844 12.281 12.281v40.641c0 6.7969-5.4844 12.281-12.281 12.281-6.7969 0-12.281-5.4844-12.281-12.281zm24.562 242.21v40.641c0 6.7969-5.4844 12.281-12.281 12.281-6.7969 0-12.281-5.4844-12.281-12.281v-40.641c0-6.7969 5.4844-12.281 12.281-12.281 6.7969 0 12.281 5.4844 12.281 12.281zm64.688-198.05c-4.7812-4.7812-4.7812-12.562 0-17.344l28.734-28.734c4.7812-4.7812 12.562-4.7812 17.344 0s4.7812 12.562 0 17.344l-28.734 28.734c-2.3906 2.3906-5.5312 3.6094-8.6719 3.6094-3.1406 0-6.2812-1.2188-8.6719-3.6094zm-153.89 153.89c4.7812 4.7812 4.7812 12.562 0 17.344l-28.734 28.734c-2.3906 2.3906-5.5312 3.6094-8.6719 3.6094s-6.2812-1.2188-8.6719-3.6094c-4.7812-4.7812-4.7812-12.562 0-17.344l28.734-28.734c4.7812-4.7812 12.562-4.7812 17.344 0zm198.05-89.203h40.641c6.7969 0 12.281 5.4844 12.281 12.281s-5.4844 12.281-12.281 12.281h-40.641c-6.7969 0-12.281-5.4844-12.281-12.281s5.4844-12.281 12.281-12.281zm-295.13 12.281c0-6.7969 5.4844-12.281 12.281-12.281h40.641c6.7969 0 12.281 5.4844 12.281 12.281s-5.4844 12.281-12.281 12.281h-40.641c-6.7969 0-12.281-5.4844-12.281-12.281zm297.1 105.7c4.7812 4.7812 4.7812 12.562 0 17.344-2.3906 2.3906-5.5312 3.6094-8.6719 3.6094s-6.2812-1.2188-8.6719-3.6094l-28.734-28.734c-4.7812-4.7812-4.7812-12.562 0-17.344s12.562-4.7812 17.344 0zm-246.1-211.4c-4.7812-4.7812-4.7812-12.562 0-17.344s12.562-4.7812 17.344 0l28.734 28.734c4.7812 4.7812 4.7812 12.562 0 17.344-2.3906 2.3906-5.5312 3.6094-8.6719 3.6094-3.1406 0-6.2812-1.2188-8.6719-3.6094z"/>
</svg>
