<?xml version="1.0" encoding="UTF-8"?>
<svg width="1200pt" height="1200pt" version="1.1" viewBox="0 0 1200 1200" xmlns="http://www.w3.org/2000/svg">
 <path d="m915.6 558c-27.602-6-55.199 12-61.199 39.602-9.6016 45.602-34.801 108-51.602 118.8-28.801 18-81.602 39.602-134.4 39.602l-138-0.003906c-51.602 0-104.4-21.602-134.4-39.602-15.602-9.6016-40.801-66-51.602-118.8-6-27.602-33.602-45.602-61.199-39.602-27.602 6-45.602 33.602-39.602 61.199 7.1992 33.602 34.801 146.4 98.398 184.8 15.602 9.6016 63.602 36 127.2 48v277.2c0 22.801 18 40.801 40.801 40.801h181.2c22.801 0 40.801-18 40.801-40.801l0.003906-277.2c63.602-12 111.6-38.398 127.2-48 63.602-38.398 91.199-151.2 98.398-184.8 3.6016-27.598-13.199-55.199-41.996-61.199z"/>
 <path d="m720 600c0 66.273-53.727 120-120 120s-120-53.727-120-120 53.727-120 120-120 120 53.727 120 120z"/>
 <path d="m661.2 91.199c0 33.801-27.398 61.199-61.199 61.199s-61.199-27.398-61.199-61.199 27.398-61.199 61.199-61.199 61.199 27.398 61.199 61.199z"/>
 <path d="m381.6 242.4c15.602 0 31.199-6 43.199-18 24-24 24-62.398 0-86.398s-62.398-24-86.398 0-24 62.398 0 86.398c11.996 12 27.598 18 43.199 18z"/>
 <path d="m351.6 399.6c0 33.797-27.402 61.199-61.203 61.199-33.797 0-61.199-27.402-61.199-61.199 0-33.801 27.402-61.203 61.199-61.203 33.801 0 61.203 27.402 61.203 61.203z"/>
 <path d="m970.8 399.6c0 33.797-27.402 61.199-61.199 61.199-33.801 0-61.203-27.402-61.203-61.199 0-33.801 27.402-61.203 61.203-61.203 33.797 0 61.199 27.402 61.199 61.203z"/>
 <path d="m818.4 242.4c15.602 0 31.199-6 43.199-18 24-24 24-62.398 0-86.398s-62.398-24-86.398 0-24 62.398 0 86.398c12 12 27.602 18 43.199 18z"/>
</svg>
