<?xml version="1.0" encoding="UTF-8"?>
<svg width="1200pt" height="1200pt" version="1.1" viewBox="0 0 1200 1200" xmlns="http://www.w3.org/2000/svg">
 <path d="m847.88 436.01c-43.578-69.527-116.13-111.34-217.64-125.45h-66.125v0.75781c-90.434 12.344-158.32 53.527-203.66 123.56-33.504 51.891-50.258 107.31-50.258 166.26 0 63.48 16.25 119.15 48.746 167.01 55.922 81.113 152.02 121.67 288.3 121.67 46.855 0 89.301-8.4375 127.34-25.316 26.703-12.09 44.086-23.93 52.145-35.516 26.199-35.773 44.336-80.105 54.414-133.01 6.043-30.984 9.0664-63.73 9.0664-98.242 0-61.969-14.105-115.88-42.32-161.72m-213.49-92.953c88.168 11.586 151.52 48.367 190.06 110.34 25.441 41.312 38.164 89.801 38.164 145.47 0 61.719-10.832 114.49-32.496 158.32-34.008 69.273-90.812 101.27-170.41 95.973h-84.641c-96.984-19.395-163.61-54.789-199.89-106.18-24.938-35.016-37.406-83.254-37.406-144.72 0-51.137 14.609-99.754 43.832-145.86 39.547-62.723 98.996-100.51 178.35-113.36h74.438m-165.5 104.67c0 2.7695 0.25 4.6602 0.75391 5.668 1.5117 3.2734 4.9141 4.9102 10.203 4.9102 59.953-23.68 89.93-36.398 89.93-38.164 0-14.863-16.754-16.246-50.254-4.1562-33.758 11.84-50.633 22.422-50.633 31.742m269.03 6.8008c1.7656-2.5195 2.6484-4.9141 2.6484-7.1797 0-11.84-14.738-21.914-44.211-30.23-29.473-8.5625-44.211-6.1719-44.211 7.1797 0-0.50391 12.598 5.1641 37.789 17.004l38.539 17.762c3.7773 0 6.9297-1.5117 9.4453-4.5352m57.059 36.273c-4.2812-4.2812-10.203-4.9102-17.762-1.8906-2.7695 1.0078-7.8086 3.9062-15.113 8.6914-17.883 14.609-28.465 22.672-31.738 24.184-11.336 6.0469-25.316 12.09-41.941 18.137-19.398 6.8008-33.633 10.203-42.699 10.203-53.152 0-104.54-7.4336-154.16-22.293-10.832-4.0312-28.469-11.715-52.902-23.051-18.641-8.8164-29.598-13.223-32.875-13.223-11.082 0-19.773 14.484-26.07 43.453-4.2812 19.648-6.4219 35.141-6.4219 46.477 0 6.8008 3.7773 20.023 11.336 39.672 10.328 26.957 23.676 51.641 40.051 74.062 50.129 68.77 117.01 103.15 200.64 103.15 54.16 0 103.54-34.637 148.12-103.91 15.113-23.426 28.09-48.492 38.918-75.191 9.0703-21.918 13.605-36.148 13.605-42.699 0-20.906-2.5195-37.66-7.5586-50.254-4.7852-12.848-12.594-24.688-23.426-35.52m-50.633 80.105c-21.16 6.2969-37.281 10.707-48.367 13.227-18.641 4.2812-41.688 7.6836-69.148 10.199h-48.363c-12.848-1.5078-38.289-4.1562-76.328-7.9336-31.234-2.7695-48.367-4.6602-51.387-5.668l-55.926-16.246c1.2617-10.832 4.1562-21.793 8.6914-32.875 3.0234-8.0625 5.418-14.734 7.1797-20.027 16.121 9.5742 40.555 20.531 73.305 32.875 47.609 17.633 83.508 26.449 107.69 26.449 45.848 0 89.93-8.1875 132.25-24.559 33.254-12.848 53.406-25.695 60.457-38.543 1.7656 2.7695 3.7812 6.0469 6.0469 9.8242 5.793 11.586 9.5742 22.672 11.336 33.25-3.7773 0.75781-7.9336 1.8906-12.469 3.4023-22.922 9.3203-37.914 14.863-44.965 16.625m-141.32 204.04c-43.578 0-82.75-14.734-117.51-44.207 8.5625 1.5078 19.648 3.2734 33.25 5.2891 20.656 3.2734 44.965 6.5469 72.926 9.8242h49.121c20.406-1.0078 39.047-3.1484 55.926-6.4258-29.727 23.68-60.961 35.52-93.711 35.52z"/>
</svg>
