<?xml version="1.0" encoding="UTF-8"?>
<svg width="1200pt" height="1200pt" version="1.1" viewBox="0 0 1200 1200" xmlns="http://www.w3.org/2000/svg">
 <path d="m625.74 117.19h-51.516v209.76h51.516zm247.36 508.55h209.76v-51.516h-209.76zm181.69 64.406h-159.19c-29.906 98.297-107.16 175.55-205.45 205.45v159.19c183.61-36.141 328.5-181.03 364.64-364.64zm-226.26-2.4844c-24.797 64.5-76.312 116.06-140.86 140.86-4.8281-11.625-16.312-19.828-29.719-19.828h-115.88c-13.406 0-24.891 8.2031-29.719 19.828-64.5-24.797-116.06-76.312-140.86-140.86 11.625-4.8281 19.828-16.312 19.828-29.719v-115.88c0-13.406-8.2031-24.891-19.828-29.719 24.797-64.5 76.359-116.06 140.86-140.86 4.8281 11.625 16.312 19.828 29.719 19.828h115.88c13.406 0 24.891-8.2031 29.719-19.828 64.5 24.797 116.06 76.312 140.86 140.86-11.625 4.8281-19.828 16.312-19.828 29.719v115.88c0 13.406 8.2031 24.891 19.828 29.719zm67.078-177.79h159.19c-36.188-183.61-181.08-328.5-364.69-364.69v159.24c98.344 29.906 175.6 107.16 205.5 205.45zm224.68 0.42188c15.281 2.4844 26.953 15.75 26.953 31.781v115.88c0 15.984-11.672 29.25-26.953 31.781-37.641 219.74-210.79 392.9-430.55 430.5-2.4844 15.281-15.75 26.953-31.781 26.953h-115.88c-15.984 0-29.25-11.672-31.781-26.953-219.74-37.594-392.9-210.74-430.5-430.5-15.328-2.5312-27-15.797-27-31.781v-115.88c0-15.984 11.672-29.25 26.953-31.781 37.641-219.74 210.79-392.9 430.55-430.5 2.5312-15.328 15.797-27 31.781-27h115.88c15.984 0 29.25 11.672 31.781 26.953 219.74 37.641 392.9 210.79 430.55 430.55zm-546 362.76v209.76h51.516v-209.76zm-64.406 181.74v-159.19c-98.297-29.906-175.55-107.16-205.45-205.45h-159.19c36.141 183.61 181.03 328.5 364.64 364.64zm-182.9-480.52h-209.76v51.516h209.76zm-181.74-64.406h159.24c29.906-98.297 107.16-175.55 205.45-205.45l-0.046875-159.19c-183.61 36.141-328.5 181.03-364.64 364.64z" fill-rule="evenodd"/>
</svg>
