<?xml version="1.0" encoding="UTF-8"?>
<svg width="1200pt" height="1200pt" version="1.1" viewBox="0 0 1200 1200" xmlns="http://www.w3.org/2000/svg">
 <path d="m1050.7 315.32c-45.984-21.281-90.234-17.016-131.11 11.062-35.766-46.828-74.906-88.547-127.69-114.05-0.51562-0.1875-0.98438-0.28125-1.5-0.42188-52.359-31.125-109.45-44.766-170.02-46.734-64.453-2.1094-126.42 7.6406-184.92 35.859 0.046875 0.046875 0.14062 0.046875 0.1875 0.09375-0.14062 0.046875-0.28125 0.09375-0.42188 0.14062-54.469 23.812-100.45 60.422-137.06 108.09-5.9531 7.6406-10.219 9.375-19.594 4.2656-47.672-26.391-94.5-20.438-137.9 7.6406-76.594 50.203-103.88 157.5-65.531 246.84 27.234 63 86.812 105.56 145.55 100.45 13.641-1.6875 17.859 1.6875 22.969 12.75 14.484 39.141 35.766 74.062 72.375 96.188 6.7969 4.2656 6.7969 8.5312 5.9531 16.172-8.5312 84.281 19.594 154.92 86.812 206.86 77.484 61.266 166.82 78.328 262.18 57.891 124.26-27.234 222.19-120.89 211.97-261.32-0.84375-7.6406 0.84375-12.75 7.6406-17.016 34.922-24.703 57.891-57.891 70.641-97.875 4.2656-11.062 9.375-12.75 20.438-12.75 42.562 1.6875 79.172-13.641 108.94-42.562 54.469-52.781 68.109-118.31 52.781-189.84-11.812-53.625-40.734-97.875-92.672-121.74zm-903.19 58.734c32.344-29.812 67.266-39.984 108.98-21.281 7.6406 4.2656 7.6406 8.5312 3.4219 17.016-34.922 68.953-46.828 143.02-39.141 220.45 0.84375 5.1094 4.2656 11.062 5.9531 16.172 0 2.5312 0.84375 4.2656 0.84375 5.9531 0 3.4219-1.6875 6.7969-6.7969 9.375-11.062 5.1094-25.547 0-37.453-4.2656-5.9531-1.6875-11.062-5.1094-17.016-7.6406-85.172-56.156-75.797-182.16-18.797-235.78zm650.39 332.02c66.422 86.812 47.672 214.5-55.312 274.97-1.6875 1.6875-3.4219 3.4219-5.1094 4.2656-90.234 46.828-181.31 47.672-272.39 0.84375-42.562-27.234-75.75-61.266-90.234-111.52-16.172-57.891-7.6406-112.36 28.078-160.87 12.75-16.172 11.062-26.391-0.84375-41.719-39.141-51.938-54.469-108.09-35.766-171.94 28.922-100.45 128.53-132.79 209.39-67.266 25.547 20.438 27.234 20.438 48.516 1.6875 89.391-75.75 192.37-26.391 215.34 75.75 14.484 59.578-2.5312 113.2-38.297 161.72-9.375 11.906-12.75 21.281-3.375 34.078zm111.47-18.75c-9.375 19.594-21.281 38.297-39.141 48.516-28.922-28.078-17.859-55.312-2.5781-86.812 40.875-84.281 26.391-183.89-30.656-241.74-62.156-63-143.02-73.219-217.92-24.703-12.75 8.5312-20.438 7.6406-33.188 0-131.11-78.328-254.53 10.219-270.71 133.64-7.6406 61.266 5.1094 116.62 38.297 167.68 4.2656 7.6406 5.9531 11.906 1.6875 19.594-6.7969 10.219-11.906 22.125-17.859 34.031-25.547-17.016-36.609-44.25-51.094-68.109-11.062-34.031-20.438-68.953-22.125-104.72-2.5781-53.625 6.7969-105.56 26.391-154.92 30.656-64.688 74.906-116.62 136.22-154.08 112.36-58.734 226.4-63 341.34-5.9531 80.859 47.672 137.06 114.94 159.19 206.86 19.641 79.219 16.219 155.81-17.859 230.72zm136.22-82.547c-19.594 12.75-40.875 20.438-67.266 17.016 14.484-83.438 5.9531-164.29-28.922-240.89-7.6406-15.328-3.4219-21.281 10.219-26.391 34.922-11.906 66.375-5.9531 95.344 17.016 67.219 53.625 62.109 184.69-9.375 233.26zm-332.81 234.05c10.219 11.062 6.7969 23.859-3.4219 34.031-30.656 28.078-67.266 39.984-106.41 40.875-40.875 0-74.062-12.75-102.14-39.141-11.062-9.375-16.172-20.438-5.1094-33.188 11.062-11.906 22.969-10.219 35.766-0.84375 50.203 37.453 94.5 36.609 147.28-2.5781 11.016-8.4844 23.812-11.062 34.031 0.84375zm-228.14-221.29c-21.281-0.84375-38.297-19.594-36.609-41.719 0.84375-21.281 17.859-35.766 39.141-34.922 20.438 0.84375 36.609 18.75 35.766 39.141 0 19.641-19.594 37.5-38.297 37.5zm272.39-40.031c0.84375 21.281-15.328 38.297-36.609 38.297-19.594 0.84375-37.453-16.172-38.297-36.609 0-21.281 16.172-38.297 36.609-38.297 22.125-0.84375 37.453 14.484 38.297 36.609zm-224.72 123.47c0-14.484 8.5312-22.969 23.859-23.859 17.016 0 24.703 9.375 26.391 24.703-1.6875 15.328-10.219 24.703-26.391 24.703-16.219-0.046875-24.703-9.375-23.859-25.547zm81.703-1.7344c1.6875-14.484 10.219-22.125 25.547-21.281 16.172 0 22.969 10.219 23.812 22.969-1.6875 18.703-11.062 27.234-27.234 25.547-16.172-0.84375-23.812-11.062-22.125-27.234z"/>
</svg>
