<?xml version="1.0" encoding="UTF-8"?>
<svg width="1200pt" height="1200pt" version="1.1" viewBox="0 0 1200 1200" xmlns="http://www.w3.org/2000/svg">
 <path d="m1031.3 75h-862.5c-10.312 0-18.75 8.4375-18.75 18.75v56.25c0 10.312 8.4375 18.75 18.75 18.75h18.75v825h345.19c7.6875-24.562 20.625-46.5 37.688-64.688-20.25-11.438-43.688-18.375-68.812-19.312-22.875-44.625-72.75-75.375-130.5-75.375-8.8125 0-17.438 0.75-25.875 2.25-15-50.062-62.25-88.125-120.19-94.875v-179.26h750v179.26c-57.938 6.75-105.19 44.812-120.19 94.875-8.4375-1.5-17.062-2.25-25.875-2.25-57.75 0-107.62 30.75-130.5 75.375-38.625 1.5-73.125 16.312-97.875 41.812-11.812 11.812-21.375 25.875-27.938 42.188h439.87v-825h18.75c10.312 0 18.75-8.4375 18.75-18.75v-56.25c0-10.312-8.4375-18.75-18.75-18.75zm-468.74 412.5h-337.5v-318.74h337.5zm412.5 0h-337.5v-318.74h337.5z"/>
 <path d="m618.74 693.74v-37.5c0-10.312-8.4375-18.75-18.75-18.75s-18.75 8.4375-18.75 18.75v37.5c0 10.312 8.4375 18.75 18.75 18.75s18.75-8.4375 18.75-18.75z"/>
 <path d="m694.13 720.56c7.5 0 14.625-4.5 17.438-12l13.5-35.062c3.75-9.75-1.125-20.438-10.875-24.188s-20.438 1.125-24.188 10.875l-13.5 35.062c-3.75 9.75 1.125 20.438 10.875 24.188 2.25 0.75 4.5 1.3125 6.75 1.3125z"/>
 <path d="m783.56 758.26 24.188-28.688c6.75-7.875 5.625-19.688-2.25-26.438s-19.688-5.625-26.438 2.25l-24.188 28.688c-6.75 7.875-5.625 19.688 2.25 26.438 3.5625 3 7.875 4.5 12 4.5 5.4375 0 10.688-2.25 14.438-6.75z"/>
 <path d="m505.87 720.56c2.25 0 4.5-0.375 6.75-1.3125 9.75-3.75 14.438-14.625 10.875-24.188l-13.5-35.062c-3.75-9.75-14.625-14.438-24.188-10.875-9.75 3.75-14.438 14.625-10.875 24.188l13.5 35.062c2.8125 7.5 9.9375 12 17.438 12z"/>
 <path d="m394.69 703.13c-7.875 6.75-9 18.562-2.25 26.438l24.188 28.688c3.75 4.3125 9 6.75 14.438 6.75 4.3125 0 8.625-1.5 12-4.5 7.875-6.75 9-18.562 2.25-26.438l-24.188-28.688c-6.75-7.875-18.562-9-26.438-2.25z"/>
 <path d="m744.19 340.31c4.875 0 9.5625-1.875 13.312-5.4375l64.875-64.875c7.3125-7.3125 7.3125-19.125 0-26.438s-19.125-7.3125-26.438 0l-64.875 64.875c-7.3125 7.3125-7.3125 19.125 0 26.438 3.75 3.75 8.4375 5.4375 13.312 5.4375z"/>
 <path d="m770.63 412.87c3.75 3.75 8.4375 5.4375 13.312 5.4375s9.5625-1.875 13.312-5.4375l103.12-103.12c7.3125-7.3125 7.3125-19.125 0-26.438s-19.125-7.3125-26.438 0l-103.12 103.12c-7.3125 7.3125-7.3125 19.125 0 26.438z"/>
 <path d="m299.63 334.69c3.75 3.75 8.4375 5.4375 13.312 5.4375s9.5625-1.875 13.312-5.4375l64.875-64.875c7.3125-7.3125 7.3125-19.125 0-26.438s-19.125-7.3125-26.438 0l-64.875 64.875c-7.3125 7.3125-7.3125 19.125 0 26.438z"/>
 <path d="m339.37 412.87c3.75 3.75 8.4375 5.4375 13.312 5.4375s9.5625-1.875 13.312-5.4375l103.12-103.12c7.3125-7.3125 7.3125-19.125 0-26.438s-19.125-7.3125-26.438 0l-103.12 103.12c-7.3125 7.3125-7.3125 19.125 0 26.438z"/>
 <path d="m523.87 874.13c27.562 4.125 53.625 14.062 76.312 29.062 22.125-15 48-25.125 75.938-29.25 14.438-20.625 33.562-37.875 55.688-50.812-30.938-39-78.375-64.125-131.81-64.125s-101.06 25.125-131.81 64.125c22.125 12.938 41.438 30 55.688 50.812z"/>
 <path d="m168.74 1031.3h862.5c10.359 0 18.75 10.359 18.75 18.75v56.25c0 10.359-8.3906 18.75-18.75 18.75h-862.5c-10.359 0-18.75-10.359-18.75-18.75v-56.25c0-10.359 8.3906-18.75 18.75-18.75z"/>
</svg>
