<?xml version="1.0" encoding="UTF-8"?>
<svg width="1200pt" height="1200pt" version="1.1" viewBox="0 0 1200 1200" xmlns="http://www.w3.org/2000/svg">
 <path d="m600 216c-101.84 0-199.52 40.457-271.53 112.47-72.016 72.012-112.47 169.68-112.47 271.53s40.457 199.52 112.47 271.53c72.012 72.016 169.68 112.47 271.53 112.47s199.52-40.457 271.53-112.47c72.016-72.012 112.47-169.68 112.47-271.53 0-67.406-17.742-133.62-51.445-192-33.703-58.375-82.18-106.85-140.55-140.55-58.375-33.703-124.59-51.445-192-51.445zm0 672c-70.305-0.050781-138.16-25.82-190.79-72.449-52.621-46.625-86.371-110.89-94.883-180.68-8.5117-69.789 8.7969-140.28 48.668-198.19l400.32 400.32c-47.969 33.25-104.95 51.043-163.32 51zm232.2-117.84-402.36-402.36c55.477-40.414 123.56-59.688 191.99-54.348 68.43 5.3438 132.7 34.949 181.23 83.48 48.531 48.535 78.137 112.8 83.48 181.23 5.3398 68.43-13.934 136.52-54.348 191.99z"/>
</svg>
