<?xml version="1.0" encoding="UTF-8"?>
<svg width="1200pt" height="1200pt" version="1.1" viewBox="0 0 1200 1200" xmlns="http://www.w3.org/2000/svg">
 <path transform="scale(3.6036)" d="m281 55c0 16.016-12.984 29-29 29-16.017 0-29-12.984-29-29 0-16.017 12.983-29 29-29 16.016 0 29 12.983 29 29z" fill="none" stroke="#000" stroke-width="13.331"/>
 <path transform="scale(3.6036)" d="m68.001 96 167-17c5.0004 3.0005 9.9998 5.0004 17 5.0004 9.0003 0 16-3.0005 21.999-9.0003l24-3.0005 21 204-230 24z" fill="none" stroke="#000" stroke-width="13.331"/>
 <path transform="scale(3.6036)" d="m46 69 112 18-90 9.0003 19 187-73-11 32-203zm201 215-3.9999 24-90-14 94-9.9998z" fill-rule="evenodd" stroke="#000" stroke-width="13.331"/>
 <path transform="scale(3.6036)" d="m235 79-31 38" fill="none" stroke="#000" stroke-width="13.331"/>
</svg>
