<?xml version="1.0" encoding="UTF-8"?>
<svg width="1200pt" height="1200pt" version="1.1" viewBox="0 0 1200 1200" xmlns="http://www.w3.org/2000/svg">
 <path d="m429.94 572.68c8.3906-50.766-6.4219-104.44-39.656-143.68-30.703-36.234-72.562-56.156-117.89-56.156s-87.188 19.969-117.89 56.156c-33.234 39.188-48.094 92.906-39.656 143.68 12.797 77.203 83.438 91.312 99.609 93.562 5.1094 3.4219 10.734 6.4219 16.828 8.9062-2.9531 10.828-9.0938 13.828-21.656 19.641-5.0156 2.2969-10.641 4.9219-16.828 8.4844-21.375 12.328-36.234 23.344-53.578 46.312-5.8594 7.7812-8.0156 15.516-6.3281 23.016 2.4375 11.109 12.469 17.578 19.828 21.516 23.531 12.562 74.766 25.547 119.67 25.547 44.953 0 96.141-12.984 119.67-25.547 7.3125-3.8906 17.344-10.406 19.828-21.516 1.6406-7.5-0.46875-15.234-6.3281-23.016-17.344-22.922-32.203-33.938-53.578-46.266-6.1406-3.5625-11.812-6.1875-16.828-8.4844-12.609-5.8594-18.75-8.8594-21.703-19.734 6.0938-2.4844 11.719-5.4844 16.781-8.9062 16.266-2.25 86.906-16.359 99.703-93.469zm-138.71 108.47c2.7188 9.9844 7.2188 16.734 12.703 21.75-8.3906 2.3906-18.562 3.9375-31.875 3.75-13.078 0.14062-23.062-1.4531-31.172-3.7969 5.4375-5.0156 9.8906-11.719 12.609-21.656 6.7969 1.125 13.172 1.7344 18.797 1.7344 5.5781-0.046875 12.047-0.65625 18.891-1.7812zm1.9688-23.812c-7.7812 1.6406-15.234 2.5312-20.906 2.5312-5.7656-0.046875-13.219-0.9375-21-2.5312-38.625-8.0625-56.062-47.156-60.469-58.922-4.8281-12.844-7.4062-30.797-7.7812-53.297 28.688-20.344 70.125-25.828 89.062-25.828h0.375c18.891 0 60.375 5.5312 89.016 25.828-0.375 22.547-3 40.5-7.7812 53.297-4.4062 11.766-21.891 50.859-60.469 58.922zm490.5-36.422c2.2031-39.703 4.2656-77.156 4.2188-105.94-0.14062-71.438-41.578-139.97-103.17-170.53-49.688-24.656-104.58-19.172-150.84 15-29.906 9.3281-54.844 36.047-72.281 77.438-26.578 63.141-19.641 138.05-12.984 210.47 4.5 48.562 9.0469 98.766 3.4688 144.52-5.0625 7.875-6.9844 15.609-5.3438 23.016 2.8125 12.609 14.531 20.156 23.062 24.703 28.734 15.328 91.266 31.172 146.21 31.172 54.75 0 117.19-15.844 145.92-31.172 8.5781-4.5469 20.297-12.094 23.062-24.703 1.6406-7.3594-0.23438-15.047-5.2031-22.828-3.0469-46.5 0.60938-112.64 3.8438-171.19zm-193.03 80.438c8.9062 2.2031 17.578 3.4219 25.266 3.4219 7.4531 0 15.891-1.2188 24.516-3.2812 6.7031 25.922 23.344 33.375 40.828 41.156 3.1406 1.4062 6.3281 2.8125 9.5625 4.3594-18.281 7.5469-41.766 13.359-75.094 12.984-32.578 0.51562-55.5-5.3438-74.156-13.266 2.8594-1.3594 5.7188-2.6719 8.4375-3.9375 17.391-7.875 33.891-15.422 40.594-41.484zm-66.328-93.703c-7.3125-31.172-9.8438-53.625-8.4375-75 2.7188-40.734 15.422-74.438 32.391-85.875 3.9844-2.6719 8.0625-4.0312 12.375-4.0312 2.3906 0 4.875 0.42188 7.4062 1.2656 3.1875 1.0781 6.7031 0.65625 9.5625-1.0781 19.125-11.578 25.781-4.875 48.281 22.547 11.953 14.578 26.812 32.719 48.328 49.219 28.359 21.75 41.484 57.891 33.516 92.062 0 0-0.84375 3.4219-1.2188 4.6875-8.2031 28.781-31.922 54.328-60.047 64.406-10.828 3.7969-21.656 5.9062-30.562 5.9062-8.8594 0-19.734-2.1094-30.469-5.8594-29.438-10.5-54-37.922-61.125-68.203zm556.03 156.66c-18.141-23.953-33.656-35.484-56.016-48.375l-3.9844-2.2969c-21-12-34.5-19.875-39.234-40.312 26.625-13.219 47.016-36.469 56.812-64.781 17.109-0.09375 32.062-13.547 38.203-29.812 4.3594-11.578 4.2188-23.812-0.32812-33.562-2.2969-4.9688-5.7188-8.9531-9.8438-12.047 19.266-123.74-40.641-154.97-87.938-167.58-34.875-9.2812-110.62-5.8125-127.74 44.391-0.14063 0.42187-0.46875 1.125-0.9375 1.4531-36.328 23.953-45.891 58.547-33.094 121.92-3.9844 3.0938-7.2656 6.9844-9.5156 11.812-4.5469 9.75-4.6406 21.984-0.32812 33.562 6.1406 16.266 21.047 29.719 38.156 29.766 9.75 28.266 30.188 51.562 56.812 64.781-4.7344 20.344-18.234 28.172-39.188 40.219l-4.1719 2.3906c-22.359 12.891-37.922 24.422-56.062 48.422-6.0469 8.0156-8.25 15.984-6.5625 23.672 2.5312 11.438 12.938 18.141 20.531 22.172 24.656 13.172 78.234 26.766 125.26 26.766 47.016 0 100.64-13.594 125.29-26.766 7.5938-4.0312 18-10.781 20.484-22.172 1.6875-7.6875-0.51562-15.656-6.5625-23.672zm-139.13-80.344c5.6719 0 11.812-0.89063 18.141-2.4844 2.8594 10.547 7.5469 18.75 13.359 25.594-8.3906 3.0469-18.891 5.5312-31.781 5.5312-12.656 0-22.922-2.3438-31.359-5.3906 5.9062-6.8438 10.641-15.094 13.547-25.734 6.2812 1.5469 12.422 2.4844 18.141 2.4844zm-77.438-91.031c-0.375-1.6875-1.9219-11.531-3.375-24.375-0.70313-6.3281-6.4688-10.922-12.75-10.125-6.3281 0.70312-10.875 6.4219-10.125 12.75 0.46875 4.0781 1.0312 8.5312 1.5938 12.703-4.7812-2.4375-9.0469-7.5469-11.156-13.219-2.1562-5.7188-2.2969-11.625-0.375-15.703 1.125-2.4375 2.9062-4.0312 5.4844-4.9688 1.7344-0.60938 4.3125-1.0312 6.8438-1.0781 9.4688-0.14062 17.297-7.0781 18.562-16.453 3.6562-27.375 19.5-69.188 35.953-72.469 4.4531-0.89063 8.5781-3.2344 11.906-6.75 7.9688-8.4375 29.766-13.594 49.5-7.9219 13.312 3.8438 30.234 13.969 35.531 40.359 0.51562 2.5312 0.79687 5.25 1.1719 8.1562 1.8281 15.609 4.6406 39.188 34.641 52.969 3.9375 1.8281 8.3438 2.5781 12.703 2.2031 3.2344-0.28125 7.125 0.14063 9.6094 1.0312 2.5312 0.89063 4.3125 2.4844 5.4375 4.9219 1.9219 4.125 1.7812 9.9844-0.375 15.703-2.1562 5.6719-6.375 10.781-11.203 13.219 0.51563-3.75 0.98438-7.6875 1.4062-11.297 0.75-6.3281-3.7969-12.047-10.125-12.75-6.3281-0.70313-12.047 3.7969-12.75 10.125-1.4062 12.328-2.8125 21.375-3.1875 22.922-10.078 41.391-41.578 57.844-54.703 63.047-8.0625 3.2344-16.172 5.0156-22.781 5.0156-6.6094 0-14.719-1.7812-22.828-5.0156-13.078-5.1562-44.578-21.609-54.609-62.953z"/>
</svg>
