<?xml version="1.0" encoding="UTF-8"?>
<svg width="1200pt" height="1200pt" version="1.1" viewBox="0 0 1200 1200" xmlns="http://www.w3.org/2000/svg">
 <path d="m1078.5 421.69c-0.375 16.641-17.109 32.953-47.156 45.938-39.469 17.016-184.97 61.406-281.21 90.75-27 8.25-50.344 15.375-64.781 19.875l-13.781 20.906c-0.09375 0.09375-0.14062 0.23438-0.23438 0.32812l-45.703 69.328c-0.09375 0.09375-0.14062 0.23438-0.23438 0.32812l-99 150.14c-2.9531 4.6406-13.547 19.312-31.125 25.594-9.1406 3.2812-20.203 4.2656-33.141 0.32813l18.891-40.266c7.875 1.2656 14.719-0.046874 20.391-2.5312 10.641-4.6875 17.203-13.5 19.266-16.734l0.09375-0.1875 139.64-251.16c24.75-5.9062 48-8.625 59.484-8.4844l-26.156 39.656c14.109-4.3594 32.766-10.031 53.578-16.406 96.047-29.297 241.22-73.547 280.22-90.375 25.969-11.203 41.062-24.797 41.344-37.266 0.23438-10.453-10.312-21.188-30.469-30.984-3.6094-1.7344-7.0312-3.2812-10.547-4.8281-2.7188 3.0938-6.4688 6.2812-10.828 9.4219-12.281 8.8594-27.938 16.406-33.938 17.859-2.0625 0.51562-4.3125 0.28125-6.5625-0.51562-2.9531-0.98438-5.7656-2.8594-8.0156-5.2031-2.2031-2.25-3.8438-4.9219-4.5-7.5469-0.23438-0.9375-0.32812-1.875-0.23438-2.7656 9.7031-3.6562 17.672-7.875 24.375-12.469 4.5938-3.1875 8.3906-6.5625 11.906-9.9844-67.078-23.156-116.39-11.531-193.03 15.844-27.797 9.9375-63 24.188-103.78 40.734-127.45 51.656-297.32 120.47-400.31 120.47-11.438 0-22.078-0.84375-31.734-2.6719-22.312-4.2188-43.641-19.406-62.438-32.766-15.047-10.688-29.25-20.812-39.422-21.703-4.125 1.0312-17.016 7.1719-25.688 11.25-3.6562 1.7344-7.0312 3.3281-9.8438 4.5938 14.906 20.25 76.922 100.41 89.203 116.25l13.219-18.891c2.8594-2.25 11.109-4.4531 21.188-5.9062 9.75-1.4062 20.906-1.9688 30.656-1.1719 9.0938 0.75 16.688 2.6719 19.875 6.2344 0.28125 0.28125 0.46875 0.60938 0.65625 0.89062l-30.422 29.016c6.1406 0.70312 12.375 1.4062 18.938 2.2031 46.172 5.5312 98.531 11.812 150.94 3.2344 19.969-3.2344 45.656-12.609 72.891-22.547 18.562-6.75 37.734-13.781 56.062-19.172 0.09375-0.046875 0.1875 0 0.28125-0.046875l19.219-40.922c14.109-9.5625 33.656-16.969 53.391-22.359l-135.89 244.4c-1.6875 2.6719-7.0781 9.9375-15.703 13.734-3.8906 1.6875-8.4375 2.7188-13.688 2.2969l87.047-185.21c-15.656 4.9219-31.734 10.594-47.438 16.359-27.656 10.078-53.766 19.594-74.625 23.016-19.172 3.1406-38.297 4.3125-57.047 4.3125-33.797 0-66.516-3.8906-96.609-7.5-9.375-1.125-18.281-2.2031-26.906-3.0938l-51.609 49.219c-10.547 8.6719-20.016 14.484-29.719 17.484-7.9688 2.4375-16.219 3-25.594 1.6406l55.125-78.891c-9.2812-11.859-93.891-121.03-95.297-125.02-0.89062-2.5312 0.42188-5.2969 2.9062-6.1875 2.3438-0.84375 8.3438-3.6562 14.672-6.6562 14.016-6.6094 24.234-11.391 28.688-12.141 0.375-0.046875 0.70312-0.09375 1.0781-0.046875 13.031 0.70312 27.891 11.297 45.141 23.531 17.578 12.516 37.453 26.578 57.234 30.797v-0.14062l-10.641-29.438c5.1562-2.3438 10.5-3.7031 15.891-2.9062 6.4219 0.9375 13.219 4.9219 20.297 13.828l14.391 21.375c77.906-2.6719 192.37-42.328 297.19-83.25l-140.21-66.797c2.1094-1.7344 4.7344-3 7.5938-3.7969 6-1.7344 12.609-1.5938 16.781-0.28125l154.92 55.453c3.75-1.5 7.3594-2.9531 11.062-4.4531l-163.4-58.5-0.28125-0.09375c-5.4375-1.6406-13.828-1.9219-21.328 0.28125-4.9688 1.4531-9.6094 3.9375-12.938 7.7812l-22.688-10.781c5.3906-7.5938 11.812-11.906 18.188-14.203 12.844-4.5938 25.688-1.2188 29.531 0.046875l128.58 39.891c0.14062 0.046875 0.23438 0.09375 0.375 0.09375l59.297 18.422c0.09375 0.046875 0.23438 0.09375 0.32812 0.09375l14.859 4.6406c3.375-1.3594 6.8906-2.7656 10.219-4.125 40.875-16.547 76.172-30.844 104.16-40.875 93.094-33.281 147-44.062 238.87 0.51562 24.188 11.719 36.234 25.172 35.906 39.891zm-410.21 92.203c2.7188-0.98438 4.7812-2.9531 5.9062-5.3906s1.3594-5.2969 0.42188-8.0156l-4.8281-13.453c-0.98438-2.7188-2.9531-4.7812-5.3906-5.9062s-5.2969-1.3594-7.9688-0.42188l-8.5781 3.0469c-2.7188 0.98438-4.7812 2.9531-5.9062 5.3906s-1.3594 5.2969-0.42188 8.0156l4.8281 13.453c0.98438 2.7188 2.9531 4.7812 5.3906 5.9062 2.4375 1.1719 5.2969 1.3594 8.0156 0.42188l8.5781-3.0469zm18.281-104.95c-0.1875-0.1875-0.42188-0.375-0.60938-0.5625-3.4688-3.2344-6.6562-8.2031-8.7656-14.109-1.9219-5.3906-2.6719-10.781-2.2969-15.234l-47.531 19.781 47.859 14.859 11.344-4.6875zm61.875 73.031c2.4375 1.1719 5.2969 1.3594 8.0156 0.42188l8.5781-3.0469c2.7188-0.98438 4.7812-2.9531 5.9062-5.3906s1.3594-5.2969 0.42188-8.0156l-4.8281-13.453c-0.98438-2.7188-2.9531-4.7812-5.3906-5.9062s-5.2969-1.3594-7.9688-0.42188l-8.5781 3.0469c-2.7188 0.98438-4.7812 2.9531-5.9062 5.3906s-1.3594 5.2969-0.42188 8.0156l4.8281 13.453c0.98438 2.7188 2.9531 4.7812 5.3906 5.9062zm-48.375 17.297c2.4375 1.125 5.2969 1.3594 8.0156 0.42188l8.5781-3.0469c2.7188-0.98438 4.7812-2.9531 5.9062-5.3906s1.3594-5.2969 0.42188-8.0156l-4.8281-13.453c-0.98438-2.7188-2.9531-4.7812-5.3906-5.9062s-5.2969-1.3594-8.0156-0.42188l-8.5781 3.0469c-2.7188 0.98438-4.7812 2.9531-5.9062 5.3906s-1.3594 5.2969-0.42188 8.0156l4.8281 13.453c0.98438 2.7188 2.9531 4.7812 5.3906 5.9062zm14.625 100.03c-2.9531-2.7656-5.8125-4.0781-7.9688-3.3281-2.1094 0.75-3.5156 3.6094-4.0312 7.5938-0.65625 4.875 0.14062 11.156 2.4375 17.672 2.3438 6.5156 5.7188 11.859 9.3281 15.234 1.9219 1.8281 3.8438 3 5.5312 3.4219 0.1875 0 0.32812 0.046875 0.51562 0.09375 0.70312 0.09375 1.3594 0.046875 1.9219-0.14062 2.1094-0.75 3.5156-3.6094 4.0312-7.5938 0.65625-4.875-0.14062-11.156-2.4375-17.672-2.3438-6.5156-5.7188-11.859-9.3281-15.234zm-16.969 24.609c-2.7188-7.6875-3.6094-15.281-2.8125-21.375 0.14062-1.125 0.32812-2.2031 0.60938-3.1875l-18.281 5.5312-39.141 59.344 71.484-21.562c-0.14062-0.14062-0.32812-0.28125-0.46875-0.46875-4.5-4.2188-8.625-10.641-11.391-18.328zm-6.375-221.29c1.9219 1.8281 3.7031 2.7188 4.9219 2.2969 1.2188-0.42187 2.0156-2.25 2.3906-4.875 0.46875-3.5156-0.09375-8.0625-1.7812-12.75-1.6875-4.7344-4.125-8.5781-6.7031-11.016-1.9219-1.8281-3.7031-2.7188-4.9219-2.2969-0.28125 0.09375-0.51562 0.23438-0.75 0.46875-0.09375 0.14063-0.23438 0.28125-0.375 0.42188-0.60938 0.84375-1.0781 2.25-1.2656 3.9844-0.46875 3.5156 0.09375 8.0625 1.7812 12.797 1.6875 4.7344 4.125 8.5781 6.7031 11.016zm-123.61 113.11c-2.4375-1.125-5.2969-1.3594-7.9688-0.42187l-8.5781 3.0469c-2.7188 0.98438-4.7812 2.9531-5.9531 5.3906-1.125 2.4375-1.3594 5.2969-0.42188 8.0156l4.8281 13.453c0.98437 2.7188 2.9531 4.7812 5.3906 5.9062 2.4375 1.1719 5.2969 1.3594 8.0156 0.42187l8.5781-3.0469c2.7188-0.98438 4.7812-2.9531 5.9062-5.3906s1.3594-5.2969 0.42188-8.0156l-4.8281-13.453c-0.98437-2.7188-2.9531-4.7812-5.3906-5.9062zm-48.375 17.25c-2.4375-1.125-5.2969-1.3594-7.9688-0.42187l-8.5781 3.0469c-2.7188 0.98438-4.7812 2.9531-5.9062 5.3906s-1.3594 5.2969-0.42187 8.0156l4.8281 13.453c0.98438 2.7188 2.9531 4.7812 5.3906 5.9062 2.4375 1.1719 5.2969 1.3594 8.0156 0.42187l8.5781-3.0469c2.7188-0.98438 4.7812-2.9531 5.9062-5.3906s1.3594-5.2969 0.42187-8.0156l-4.8281-13.453c-0.98438-2.7188-2.9531-4.7812-5.3906-5.9062zm-48.328 17.297c-2.4375-1.125-5.2969-1.3594-7.9688-0.42188l-8.5781 3.0469c-2.7188 0.98437-4.7812 2.9531-5.9062 5.3906s-1.3594 5.2969-0.42188 8.0156l4.8281 13.453c0.98437 2.7188 2.9531 4.7812 5.3906 5.9062 2.4375 1.1719 5.2969 1.3594 8.0156 0.42188l8.5781-3.0469c2.7188-0.98437 4.7812-2.9531 5.9062-5.3906s1.3594-5.2969 0.42188-8.0156l-4.8281-13.453c-0.98437-2.7188-2.9531-4.7812-5.3906-5.9062zm145.03-51.844c-2.4375-1.125-5.2969-1.3594-7.9688-0.42188l-8.5781 3.0469c-2.7188 0.98437-4.7812 2.9531-5.9062 5.3906s-1.3594 5.2969-0.42188 8.0156l4.8281 13.453c0.98437 2.7188 2.9531 4.7812 5.3906 5.9062 2.4375 1.1719 5.2969 1.3594 8.0156 0.42188l8.5781-3.0469c2.7188-0.98437 4.7812-2.9531 5.9062-5.3906s1.3594-5.2969 0.42188-8.0156l-4.8281-13.453c-0.98437-2.7188-2.9531-4.7812-5.3906-5.9062zm180.71-33.75c2.4375 1.1719 5.2969 1.3594 8.0156 0.42187l8.5781-3.0469c2.7188-0.98438 4.7812-2.9531 5.9062-5.3906s1.3594-5.2969 0.42188-8.0156l-4.8281-13.453c-0.98438-2.7188-2.9531-4.7812-5.3906-5.9062s-5.2969-1.3594-7.9688-0.42187l-8.5781 3.0469c-2.7188 0.98438-4.7812 2.9531-5.9062 5.3906s-1.3594 5.2969-0.42188 8.0156l4.8281 13.453c0.98438 2.7188 2.9531 4.7812 5.3906 5.9062zm48.375-17.297c2.4375 1.1719 5.2969 1.3594 8.0156 0.42188l8.5781-3.0469c2.7188-0.98437 4.7812-2.9531 5.9062-5.3906s1.3594-5.2969 0.42188-8.0156l-4.8281-13.453c-0.98438-2.7188-2.9531-4.7812-5.3906-5.9062s-5.2969-1.3594-7.9688-0.42188l-8.5781 3.0469c-2.7188 0.98437-4.7812 2.9531-5.9062 5.3906s-1.3594 5.2969-0.42188 8.0156l4.8281 13.453c0.98438 2.7188 2.9531 4.7812 5.3906 5.9062zm60.75 6.6094c2.9531 1.4062 6.4219 1.6875 9.7031 0.46875l11.531-4.125c3.2812-1.1719 5.8125-3.6094 7.2188-6.5156 1.4062-2.9531 1.6875-6.4219 0.46875-9.7031l-12.516-34.969c-1.1719-3.2812-3.6094-5.8125-6.5156-7.1719-2.9531-1.4062-6.4219-1.6875-9.7031-0.46875l-11.531 4.125c-3.2812 1.1719-5.8125 3.6094-7.1719 6.5156-1.4062 2.9531-1.6875 6.4219-0.46875 9.7031l12.516 34.969c1.1719 3.2812 3.6094 5.8125 6.5156 7.1719z"/>
</svg>
