<?xml version="1.0" encoding="UTF-8"?>
<svg width="1200pt" height="1200pt" version="1.1" viewBox="0 0 1200 1200" xmlns="http://www.w3.org/2000/svg">
 <path d="m1061.4 476.62c-27-46.312-74.625-72.562-128.62-71.812l-149.44 3.375c-24.938-77.438-97.688-133.88-183.38-133.88s-158.44 56.25-183.38 133.88l-150.56-3.375c-53.438-0.9375-101.62 25.688-128.62 71.812s-26.812 101.25 0.5625 147.19l188.62 317.62-35.625 218.25c-1.6875 10.125 5.25 19.875 15.562 21.562 0.9375 0 2.0625 0.1875 3 0.1875 9 0 17.062-6.5625 18.562-15.75l36.75-225c0.75-4.3125 0-8.8125-2.4375-12.562l-192.19-323.44c-20.25-34.125-20.438-74.812-0.375-109.12s56.062-54.188 95.438-53.25l143.44 3.1875c-0.75 7.125-1.3125 14.25-1.3125 21.562 0 15.375 2.0625 30.188 5.4375 44.438l-102.56-2.625c-18.188-0.1875-35.25 9-44.25 24.75-9.1875 15.938-8.8125 35.438 0.9375 51l107.25 171c3.5625 5.4375 9.5625 8.8125 15.938 8.8125 1.125 0 2.25 0 3.375-0.375l114-20.438c61.125-10.875 123.19-10.875 184.31 0l114.19 20.438c7.6875 1.5 15.188-2.0625 19.125-8.4375l107.06-171c9.75-15.562 10.125-35.062 1.125-51s-26.062-25.5-44.25-24.938l-101.44 2.625c3.375-14.25 5.4375-29.25 5.4375-44.438 0-7.3125-0.5625-14.438-1.3125-21.562l142.31-3.1875c39.938-0.5625 75.375 18.938 95.438 53.25 19.875 34.125 19.688 75-0.375 108.94l-195.56 323.44c-2.25 3.75-3.1875 8.25-2.4375 12.562l34.688 225c1.5 9.1875 9.375 15.938 18.562 15.938 0.9375 0 1.875 0 2.8125-0.1875 10.312-1.5 17.25-11.062 15.75-21.375l-33.562-218.25 192.19-317.81c27.375-45.938 27.562-100.88 0.75-147.19zm-171.75 69.75c6.375-0.75 9.5625 4.125 10.688 6s3.1875 6.9375-0.375 12.375l-100.31 160.31-101.62-18.188c-65.625-11.625-132-11.625-197.44 0l-101.62 18.188-100.5-160.12c-3.375-5.625-1.3125-10.5-0.1875-12.562 1.125-1.875 4.125-7.125 10.875-6l116.81 2.8125c30.938 65.062 97.125 110.25 173.81 110.25s142.88-45.188 173.81-110.25l115.88-2.8125z"/>
 <path d="m800.25 243.75h62.25c10.312 0 18.75-8.4375 18.75-18.75s-8.4375-18.75-18.75-18.75h-25.312l33-45.188c4.125-5.625 4.6875-13.312 1.5-19.5s-9.75-10.312-16.688-10.312h-48.75c-10.312 0-18.75 8.4375-18.75 18.75s8.4375 18.75 18.75 18.75h11.812l-33 45.188c-4.125 5.625-4.6875 13.312-1.5 19.5s9.75 10.312 16.688 10.312z"/>
 <path d="m928.88 150h64.875c10.312 0 18.75-8.4375 18.75-18.75s-8.4375-18.75-18.75-18.75h-27.938l46.688-63.938c4.125-5.625 4.6875-13.312 1.5-19.5s-9.75-10.312-16.688-10.312h-59.812c-10.312 0-18.75 8.4375-18.75 18.75s8.4375 18.75 18.75 18.75h22.875l-46.688 63.938c-4.125 5.625-4.6875 13.312-1.5 19.5s9.75 10.312 16.688 10.312z"/>
</svg>
