<?xml version="1.0" encoding="UTF-8"?>
<svg width="1200pt" height="1200pt" version="1.1" viewBox="0 0 1200 1200" xmlns="http://www.w3.org/2000/svg">
 <path d="m414.42 1002.9c-49 0-88.727 39.723-88.727 88.727 0 49.004 39.723 88.727 88.727 88.727 49.004 0 88.727-39.723 88.727-88.727 0-49-39.723-88.727-88.727-88.727zm0.003906 123.34c-19.082 0-34.613-15.527-34.613-34.605 0-19.082 15.531-34.609 34.613-34.609s34.605 15.527 34.605 34.609c0 19.078-15.52 34.605-34.605 34.605z"/>
 <path d="m926.95 1002.9c-49 0-88.727 39.723-88.727 88.727 0 49.004 39.723 88.727 88.727 88.727s88.727-39.723 88.727-88.727c0-49-39.723-88.727-88.727-88.727zm0 123.34c-19.082 0-34.613-15.527-34.613-34.605 0-19.082 15.531-34.609 34.613-34.609s34.605 15.527 34.605 34.609c0 19.078-15.52 34.605-34.605 34.605z"/>
 <path d="m1085.2 908.91h-32.32v55.191h33.953c-0.42188-29.398 1.0234-34.02-1.6328-55.191z"/>
 <path d="m507.21 787.05 5.3281-24.113c-48.254-10.652-102.74-31.309-161.95-61.402-165.84-84.27-331.14 74.941-338.09 81.766l17.277 17.637c1.5898-1.543 159.77-153.57 309.63-77.387 61.062 31.035 117.53 52.395 167.81 63.5z"/>
 <path d="m1060.4 763.6 12.082 21.535c25.938-14.559 64.895-27.562 103.29-6.8672l11.723-21.727c-37.668-20.328-82.812-17.805-127.09 7.0586z"/>
 <path d="m943.5 19.684h24.695v70.516h-24.695z"/>
 <path d="m865.7 40.512 35.258 61.066-21.391 12.348-35.258-61.066z"/>
 <path d="m787.32 109.85 61.07 35.258-12.348 21.391-61.07-35.258z"/>
 <path d="m754.17 209.02h70.516v24.695h-70.516z"/>
 <path d="m787.39 332.88-12.348-21.391 61.078-35.254 12.348 21.391z"/>
 <path d="m879.6 328.77 21.391 12.348-35.25 61.07-21.391-12.348z"/>
 <path d="m943.5 352.53h24.695v70.516h-24.695z"/>
 <path d="m1032.1 328.75 35.258 61.066-21.391 12.348-35.258-61.066z"/>
 <path d="m1046.7 221.42c0-50.129-40.746-90.875-90.875-90.875-50.129 0-90.875 40.746-90.875 90.875 0 50.004 40.746 90.75 90.875 90.75 50.129 0.003906 90.875-40.742 90.875-90.75z"/>
 <path d="m1075.6 276.2 60.992 35.309-12.359 21.352-60.992-35.309z"/>
 <path d="m1087 209.02h70.516v24.695h-70.516z"/>
 <path d="m1136.7 131.18-61.059 35.254-12.348-21.391 61.059-35.254z"/>
 <path d="m1046 40.512 21.391 12.348-35.25 61.07-21.391-12.348z"/>
 <path d="m188.04 441.19-44.383-51.324-53.73 62.121 18.664 16.156 35.066-40.523 44.383 51.324 44.387-51.324 35.062 40.523 18.664-16.156-53.727-62.121z"/>
 <path d="m325.95 339.14 27.043-32.121 18.402 20.73 18.473-16.398-37.379-42.082-27.047 32.133-27.902-31.398-36.23 43.047 18.883 15.902 17.855-21.207z"/>
 <path d="m538.61 217.91 27.48 31.758 27.48-31.758 18.121 20.969 18.691-16.16-36.812-42.562-27.48 31.77-27.48-31.77-36.812 42.562 18.691 16.16z"/>
 <path d="m318.86 111.6c-4.6133-46.828-44.172-83.594-92.262-83.594-46.551 0-85.27 34.387-91.703 79.262-35.855-14.812-74.086 11.359-74.086 49.062h340.25c0-42.664-47.41-67.344-82.199-44.73z"/>
 <path d="m346.41 523.8h301.77 124.34c0-53.34-59.391-84.332-102.85-55.934-5.8047-58.648-55.316-104.7-115.57-104.7-58.277 0-106.8 43.09-114.83 99.27-44.949-18.52-92.852 14.203-92.852 61.367z"/>
 <path d="m218.7 1034.8h22.164v24.695h-22.164z"/>
 <path d="m169.31 1034.8h24.695v24.695h-24.695z"/>
 <path d="m119.92 1034.8h24.695v24.695h-24.695z"/>
 <path d="m70.535 1034.8h24.695v24.695h-24.695z"/>
 <path d="m21.145 1034.8h24.695v24.695h-24.695z"/>
 <path d="m1028.2 988.8v-104.58h52.477c-20.473-80.707-91.492-141.04-177.55-145.29v-39.922h21.98v-24.695h-293.99v24.695h22.102v39.902c-24.832 1.9219-47.812 14.137-63.094 34.055l-85.688 112.11-145.94 33.09c-51.242 11.73-87.664 57.293-87.664 109.89v31.484c0 17.16 13.336 31.238 30.129 32.719v-0.61719c0-62.602 50.871-113.47 113.47-113.47 62.477 0 113.35 50.871 113.35 113.47v0.74219h285.71v-0.74219c0-62.602 50.871-113.47 113.47-113.47 62.477 0 113.35 50.871 113.35 113.47v0.74219h9.7539l0.98828-0.86328c22.594-17.656 35.805-44.695 35.805-73.465v-29.262zm-181.38-289.79h31.609v39.512h-31.609zm-112.61 0h31.609v39.512h-31.609zm-56.305 0h31.609v39.512h-31.609zm-27.16 70.871h154.46v121.99h-250.54zm78.91 166.29h52.973v31.625h-52.973zm92.465-197.65h-31.609v-39.512h31.609zm5.8047 170.76v-139.4h94.086l2.4688 1.1094c47.66 21.113 76.797 62.973 86.305 124.09l2.2227 14.199z"/>
</svg>
