<?xml version="1.0" encoding="UTF-8"?>
<svg width="1200pt" height="1200pt" version="1.1" viewBox="0 0 1200 1200" xmlns="http://www.w3.org/2000/svg">
 <path d="m255.84 435.89c1.4062 0 2.8594-0.42188 4.2656-0.79688v66.984l-4.9688 1.875c-9.7031 3.6562-14.578 14.484-10.922 24.188 2.8594 7.5 9.9844 12.141 17.531 12.141 2.2031 0 4.4531-0.375 6.6094-1.2188l17.391-6.5625c0.1875-0.09375 0.375-0.14062 0.5625-0.1875l179.34-67.828c9.7031-3.6562 14.578-14.484 10.922-24.188-3.4688-9.2344-13.453-13.828-22.734-11.156v-66.938l3.2344-1.2188c9.7031-3.7031 14.578-14.484 10.875-24.188-3.6562-9.7031-14.484-14.531-24.188-10.875l-15.656 5.9062c-0.1875 0.09375-0.375 0.14062-0.5625 0.23438l-178.36 67.547c-9.7031 3.7031-14.578 14.484-10.875 24.188 2.8594 7.5 9.9844 12.094 17.531 12.094zm160.6 7.125-118.78 44.906v-66.516l118.78-45z"/>
 <path d="m1063.5 338.21-456.79-172.78c-0.70312-0.28125-1.4062-0.51563-2.1562-0.70313-1.4531-0.375-2.9531-0.5625-4.4531-0.5625h-0.1875c-1.5469 0-3.0938 0.1875-4.6406 0.60938h-0.046875c-0.65625 0.1875-1.3125 0.375-1.9219 0.60937l-456.89 172.82c-7.3125 2.7656-12.141 9.75-12.141 17.531v466.18c0 5.7656 2.6719 11.203 7.2656 14.766 1.5 1.1719 3.1875 2.1094 4.9219 2.7656l456.14 194.9c2.3438 0.98438 4.875 1.5 7.3594 1.5 2.5312 0 5.0156-0.51562 7.3594-1.5l455.72-194.72c1.9219-0.65625 3.75-1.6406 5.3906-2.9062 4.5469-3.5625 7.2188-9 7.2188-14.766v-466.22c0-7.7812-4.8281-14.766-12.141-17.531zm-25.359 30.469v426.1l-73.922-27.938v-238.31c6.5625-0.89062 12.516-5.1094 15-11.719 3.6562-9.7031-1.2188-20.531-10.875-24.188l-130.18-49.312c-9.7031-3.6094-20.531 1.2188-24.188 10.875-3.4688 9.1406 0.89062 19.125 9.5156 23.344v236.06l-65.438-24.75c-0.32812-0.14062-0.65625-0.046875-0.9375-0.14062-0.046875 0-0.046875-0.046875-0.09375-0.046875-0.14062-0.046875-0.23438-0.1875-0.375-0.23438l-42.188-17.062v-93.094l23.344 8.8594c2.1562 0.79688 4.4062 1.2188 6.6094 1.2188 3.9375 0 7.8281-1.2188 11.062-3.6094 5.1094-3.75 7.9688-9.7969 7.6406-16.172l-4.3594-79.547c-0.1875-3.3281-1.2656-6.6094-3.1406-9.4219-2.1562-3.2812-5.2969-5.7656-8.9531-7.125l-66.562-25.266c-5.7656-2.2031-12.234-1.4062-17.297 2.1094-3.4688 2.3906-6 5.8594-7.2188 9.8438l-22.5 68.016c-0.75 1.875-1.1719 3.8438-1.2656 5.9531-0.046875 1.0781 0 2.1562 0.09375 3.2344 0.89062 7.4531 6.1875 13.547 13.172 15.656l31.875 12.094v92.109l-58.266-23.625v-422.53zm-177.14 359.11v-235.69l65.719 24.891v235.69zm-540.24 40.406v-33.844l177.79 71.953v38.156zm93.703-146.9h0.046876c10.359 0 18.703-8.3906 18.703-18.75v-0.51562l-0.09375-25.172c0-17.578 11.109-33.469 27.609-39.516 0.5625-0.23438 1.1719-0.46875 1.7344-0.75 12.141-4.125 25.078-2.25 35.719 5.1094 11.016 7.5938 17.391 19.734 17.391 33.141v30.844l-194.81 73.688v-54.75c0-20.531 12.891-39.188 32.109-46.547l4.6875-1.8281c8.7656-3.3281 18.234-2.2031 25.969 3.0938 7.6406 5.25 12.094 13.594 12.188 22.875v0.375c0 10.312 8.3906 18.703 18.75 18.703zm121.6 224.48v-39.188l194.81-73.688v39.188zm-18.562-72.234-164.06-66.422 180.66-68.344 154.31 62.438h0.046875l9.7031 3.9375zm156.47-250.69 11.156-33.656 36.891 14.016 2.1094 38.672zm-92.766-312.79v407.34l-28.125-11.391v-31.172c0-25.547-12.562-49.5-33.562-64.031-21-14.578-47.812-17.812-71.625-8.9062-0.60938 0.23437-1.2656 0.51562-1.875 0.84375-20.391 8.0156-36.234 24.094-44.344 43.688-17.344-10.5-38.531-12.469-57.609-5.2031l-4.6875 1.8281c-33.562 12.844-56.156 45.609-56.156 81.562v124.18l-121.45 45.984v-426.1zm18.75 786.66-406.64-173.72 91.781-34.734c1.875 4.1719 5.1094 7.6875 9.5156 9.5625l215.29 92.391c0.23438 0.09375 0.51562 0.046875 0.79688 0.14062 2.1562 0.79688 4.3594 1.3594 6.6094 1.3594 2.0625 0 4.0781-0.42188 6.0469-1.125 0.1875-0.046875 0.375-0.046875 0.5625-0.09375l232.31-87.891c7.3125-2.7656 12.141-9.75 12.141-17.531v-52.172l169.74 64.219c0.09375 0.046875 0.14062 0.046875 0.23438 0.09375l68.297 25.828z"/>
</svg>
