<?xml version="1.0" encoding="UTF-8"?>
<svg width="1200pt" height="1200pt" version="1.1" viewBox="0 0 1200 1200" xmlns="http://www.w3.org/2000/svg">
 <path d="m368.67 792c-8.4609-32.074-24.07-61.82-45.668-87-18.215-20.859-37.934-40.355-59-58.332-16.652-13.098-32.254-27.473-46.668-43-10.441-11.773-18.48-25.477-23.664-40.336l-3.668-11v-12c-0.83594-8.4219-0.83594-16.91 0-25.332 0.28125-15.84 3.6797-31.473 10-46 26.086-36.773 55.547-71.031 88-102.33 18.836-21.945 33.52-47.133 43.332-74.336 9.0898-27.258 11.375-56.32 6.668-84.664-0.47266-4.3438-2.3047-8.4219-5.2422-11.656-2.9336-3.2344-6.8164-5.4531-11.09-6.3438-5.4453-1.2852-11.176-0.30859-15.891 2.707-4.7109 3.0156-7.9961 7.8086-9.1094 13.293v2c-8.418 40.715-32.32 76.57-66.668 100-44.562 28.363-84.762 63.059-119.33 103-19.516 26.305-32.328 56.965-37.336 89.332-2.3906 15.77-3.2812 31.73-2.6641 47.668-0.49609 7.9922-0.49609 16.008 0 24l5 24.668v-0.003907c8.5312 32.047 24.137 61.777 45.664 87 18.301 20.68 38.016 40.059 59 58 16.32 13.363 31.793 27.723 46.336 43 10.559 11.688 18.613 25.414 23.664 40.336 0 3.668 2.332 7.332 3.668 11 1.332 3.668 0 8.332 0 12.332 0.83203 8.3125 0.83203 16.688 0 25-0.94922 16.051-5.2656 31.723-12.668 46-25.91 37.016-55.383 71.402-88 102.67-17.281 22.527-30.48 47.914-39 75-9.0977 27.254-11.387 56.32-6.6641 84.664 0.81641 6.6016 4.7148 12.422 10.5 15.695 5.7891 3.2734 12.785 3.6133 18.863 0.91406 6.0781-2.6992 10.516-8.1172 11.969-14.609v-2c8.4492-40.703 32.344-76.547 66.668-100 44.52-28.156 84.621-62.754 119-102.66 19.66-26.508 32.586-57.395 37.664-90 2.3945-15.77 3.2852-31.73 2.668-47.668v-24.332z"/>
 <path d="m747 725.33c-6.9727-34.984-21.164-68.137-41.668-97.332-18.016-25.578-38.199-49.555-60.332-71.668-34.52-28.289-60.203-65.887-74-108.33l-4.332-14.668v-16.332c-1.0469-11.086-1.0469-22.246 0-33.332 0.97266-20.652 5.6016-40.965 13.664-60 15.668-38.668 54.332-76 91-126.33v-0.003907c18.859-26.012 32.758-55.277 41-86.332 7.0352-30.293 7.9414-61.684 2.668-92.332-1.1758-6.5117-5.3477-12.09-11.266-15.055-5.918-2.9609-12.883-2.9609-18.801 0-5.918 2.9648-10.094 8.543-11.266 15.055-7.0977 48.504-30.633 93.098-66.668 126.33-17.668 17.668-38.332 33.332-60.332 54.668-24.188 21.652-44.977 46.82-61.668 74.664-17.816 30.109-29.168 63.598-33.332 98.336-2.1172 16.801-2.8945 33.742-2.3359 50.664v25.332l4.332 26 0.003907 0.003907c6.9727 34.984 21.164 68.137 41.664 97.332 18.016 25.578 38.203 49.555 60.336 71.668 34.551 28.191 60.148 65.836 73.664 108.33l4 14.668 1.668 16c3.293 31.484-1.1719 63.301-13 92.664-15.668 38.668-54.332 76-91 126-18.863 26.133-32.758 55.512-41 86.668-7.6562 30.391-9.2422 61.996-4.668 93 0.86719 6.8203 5.0156 12.785 11.109 15.973 6.0938 3.1836 13.359 3.1836 19.453 0 6.0938-3.1875 10.242-9.1523 11.105-15.973 7.1758-48.477 30.695-93.051 66.668-126.33 17.668-17.332 38.332-33.332 60-54.332v-0.003907c24.105-21.727 44.887-46.887 61.664-74.664 18.375-30.457 29.762-64.613 33.336-100 2.3828-16.891 3.2734-33.957 2.6641-51v-25.332z"/>
 <path d="m1127.7 816.33-5-24.332c-8.4609-32.074-24.07-61.82-45.668-87-18.043-21.02-37.777-40.531-59-58.332-16.578-13.184-32.176-27.555-46.668-43-10.441-11.773-18.48-25.477-23.664-40.336l-3.668-11c0-3.668 0-8-1.668-12-0.83594-8.4219-0.83594-16.91 0-25.332 0.95312-16.051 5.2656-31.723 12.668-46 25.801-36.801 55.043-71.066 87.332-102.33 18.73-21.961 33.301-47.152 43-74.336 9.0898-27.258 11.375-56.32 6.668-84.664-0.47266-4.3438-2.3047-8.4219-5.2422-11.656-2.9336-3.2344-6.8164-5.4531-11.09-6.3438-5.4375-1.1914-11.125-0.17578-15.812 2.8242s-7.9922 7.7383-9.1875 13.176v2c-8.418 40.715-32.32 76.57-66.668 100-43.836 28.41-83.355 62.988-117.33 102.66-20.254 26.219-33.762 57.008-39.336 89.668-2.3906 15.77-3.2812 31.73-2.6641 47.668 0 8 0 16 1.668 24l5 24.668-0.003907-0.003907c8.5352 32.047 24.137 61.777 45.668 87 18.297 20.68 38.012 40.059 59 58 16.316 13.363 31.793 27.723 46.332 43 10.68 11.602 18.75 25.355 23.668 40.336 0 3.668 2.332 7.332 3.668 11 1.332 3.668 0 8.332 1.668 12.332h-0.003907c0.83203 8.3125 0.83203 16.688 0 25-0.65625 16.043-4.5078 31.797-11.332 46.332-25.879 36.941-55.238 71.32-87.668 102.67-18.766 22.117-33.441 47.398-43.332 74.668-8.9297 27.289-11.215 56.316-6.668 84.664 0.52344 4.3242 2.3711 8.3789 5.3008 11.605 2.9258 3.2227 6.7812 5.4609 11.035 6.3945 5.4688 1.1094 11.156 0.066407 15.875-2.9141 4.7227-2.9805 8.1094-7.668 9.457-13.086v-2c8.5781-40.648 32.445-76.445 66.668-100 44.52-28.156 84.621-62.754 119-102.66 19.66-26.508 32.586-57.395 37.664-90 2.3945-15.77 3.2852-31.73 2.668-47.668-0.27734-8.2617-1.0547-16.5-2.332-24.668z"/>
</svg>
