<?xml version="1.0" encoding="UTF-8"?>
<svg width="1200pt" height="1200pt" version="1.1" viewBox="0 0 1200 1200" xmlns="http://www.w3.org/2000/svg">
 <path d="m842.4 390c43.199-16.801 84-46.801 106.8-74.398 49.199-61.199 58.801-186 60-200.4 1.1992-26.398-18-49.199-44.398-50.398-26.398-1.1992-49.199 18-50.398 44.398-2.4023 44.398-16.801 118.8-38.402 146.4-20.398 25.199-72 52.801-97.199 52.801 0 0-150-3.6016-207.6-3.6016-158.4 0-226.8 177.6-280.8 320.4-27.602 73.199-56.398 147.6-87.602 168-7.1992 4.8008-10.801 10.801-12 19.199-1.1992 8.3984 2.3984 15.602 8.3984 21.602 20.398 19.199 152.4 42 300 57.602l-58.801 202.8c-8.3984 30 8.3984 62.398 39.602 70.801 4.8008 1.1992 10.801 2.3984 15.602 2.3984 25.199 0 48-16.801 55.199-42l64.801-223.2c14.398 1.1992 28.801 2.3984 43.199 3.6016l-4.8008 202.8c-1.1992 31.199 24 57.602 56.398 58.801 31.199 1.1992 57.602-24 58.801-56.398l4.8008-196.8c38.398 2.3984 74.398 3.6016 103.2 3.6016 31.199 0 55.199-1.1992 70.801-3.6016 7.1992-1.1992 14.398-6 18-13.199 3.6016-7.1992 3.6016-15.602 0-22.801-26.395-54.008-87.598-322.8-123.6-488.41zm-580.8 417.6c28.801-38.398 51.602-97.199 75.602-162 45.602-120 97.199-255.6 195.6-283.2-1.1992 1.1992-2.3984 2.3984-2.3984 3.6016-15.602 25.199-97.199 199.2-114 234-10.801 24-1.1992 51.602 22.801 62.398 6 3.6016 13.199 4.8008 20.398 4.8008 18 0 34.801-9.6016 43.199-27.602 26.398-55.199 54-114 74.398-157.2l-8.3984 164.4-57.602 196.8c-105.6-10.801-201.6-25.203-249.6-36zm367.2 48 32.398-111.6-2.3984 114c-9.6016 0-20.402-1.1992-30-2.3984zm145.2 10.797 4.8008-202.8 20.398-231.6c25.199 117.6 75.602 340.8 106.8 436.8-32.398 1.1992-79.199 0-132-2.4023z"/>
 <path d="m820.8 153.6c0 68.262-55.34 123.6-123.6 123.6s-123.6-55.336-123.6-123.6c0-68.266 55.336-123.6 123.6-123.6s123.6 55.336 123.6 123.6z"/>
</svg>
