<?xml version="1.0" encoding="UTF-8"?>
<svg width="1200pt" height="1200pt" version="1.1" viewBox="0 0 1200 1200" xmlns="http://www.w3.org/2000/svg">
 <path d="m200 825c0 20.711-16.789 37.5-37.5 37.5s-37.5-16.789-37.5-37.5 16.789-37.5 37.5-37.5 37.5 16.789 37.5 37.5z" fill-rule="evenodd"/>
 <path d="m1075 237.5c0 20.711-16.789 37.5-37.5 37.5s-37.5-16.789-37.5-37.5 16.789-37.5 37.5-37.5 37.5 16.789 37.5 37.5z" fill-rule="evenodd"/>
 <path d="m1050 737.5c0 20.711-16.789 37.5-37.5 37.5s-37.5-16.789-37.5-37.5 16.789-37.5 37.5-37.5 37.5 16.789 37.5 37.5z" fill-rule="evenodd"/>
 <path d="m200 212.5c0 20.711-16.789 37.5-37.5 37.5s-37.5-16.789-37.5-37.5 16.789-37.5 37.5-37.5 37.5 16.789 37.5 37.5z" fill-rule="evenodd"/>
 <path d="m600 962.5c205.45 0 379.85 19.949 441.45 45.648 35.051 14.602 46.051 38.102 46.051 54.352s-11 39.75-46.051 54.352c-61.602 25.699-236 45.648-441.45 45.648s-379.85-19.949-441.45-45.648c-35.051-14.602-46.051-38.102-46.051-54.352s11-39.75 46.051-54.352c61.602-25.699 236-45.648 441.45-45.648zm-356.7 100c79.75 15.301 209.85 25 356.7 25 146.85 0 276.95-9.6992 356.7-25-79.75-15.301-209.85-25-356.7-25-146.85 0-276.95 9.6992-356.7 25z" fill-rule="evenodd"/>
 <path d="m562.5 700c0-20.699 16.801-37.5 37.5-37.5s37.5 16.801 37.5 37.5v200c0 20.699-16.801 37.5-37.5 37.5s-37.5-16.801-37.5-37.5z" fill-rule="evenodd"/>
 <path d="m712.5 750c0-20.699 16.801-37.5 37.5-37.5s37.5 16.801 37.5 37.5v100c0 20.699-16.801 37.5-37.5 37.5s-37.5-16.801-37.5-37.5z" fill-rule="evenodd"/>
 <path d="m412.5 750c0-20.699 16.801-37.5 37.5-37.5s37.5 16.801 37.5 37.5v100c0 20.699-16.801 37.5-37.5 37.5s-37.5-16.801-37.5-37.5z" fill-rule="evenodd"/>
 <path d="m300 75c0-20.699 16.801-37.5 37.5-37.5s37.5 16.801 37.5 37.5v313.95c0 37.699-24.102 71.102-59.852 83l-81.602 27.25c-5.1016 1.6992-8.5508 6.4492-8.5508 11.852v38.949c0 3.3008 1.3008 6.5 3.6484 8.8516 2.3516 2.3516 5.5508 3.6484 8.8516 3.6484h250c3.3008 0 6.5-1.3008 8.8516-3.6484 2.3516-2.3516 3.6484-5.5508 3.6484-8.8516v-475c0-20.699 16.801-37.5 37.5-37.5 20.699 0 37.5 16.801 37.5 37.5v475c0 23.199-9.1992 45.449-25.648 61.852-16.398 16.449-38.648 25.648-61.852 25.648h-250c-23.199 0-45.449-9.1992-61.852-25.648-16.449-16.398-25.648-38.648-25.648-61.852v-38.949c0-37.699 24.102-71.102 59.852-83l81.602-27.25c5.1016-1.6992 8.5508-6.4492 8.5508-11.852z" fill-rule="evenodd"/>
 <path d="m825 75c0-20.699 16.801-37.5 37.5-37.5s37.5 16.801 37.5 37.5v313.95c0 5.3984 3.4492 10.148 8.5508 11.852l81.602 27.25c35.75 11.898 59.852 45.301 59.852 83v38.949c0 23.199-9.1992 45.449-25.648 61.852-16.398 16.449-38.648 25.648-61.852 25.648h-250c-23.199 0-45.449-9.1992-61.852-25.648-16.449-16.398-25.648-38.648-25.648-61.852v-475c0-20.699 16.801-37.5 37.5-37.5 20.699 0 37.5 16.801 37.5 37.5v475c0 3.3008 1.3008 6.5 3.6484 8.8516 2.3516 2.3516 5.5508 3.6484 8.8516 3.6484h250c3.3008 0 6.5-1.3008 8.8516-3.6484 2.3516-2.3516 3.6484-5.5508 3.6484-8.8516v-38.949c0-5.3984-3.4492-10.148-8.5508-11.852l-81.602-27.25c-35.75-11.898-59.852-45.301-59.852-83z" fill-rule="evenodd"/>
 <path d="m337.5 337.5c-20.699 0-37.5-16.801-37.5-37.5s16.801-37.5 37.5-37.5h200c20.699 0 37.5 16.801 37.5 37.5s-16.801 37.5-37.5 37.5z" fill-rule="evenodd"/>
 <path d="m862.5 262.5c20.699 0 37.5 16.801 37.5 37.5s-16.801 37.5-37.5 37.5h-200c-20.699 0-37.5-16.801-37.5-37.5s16.801-37.5 37.5-37.5z" fill-rule="evenodd"/>
</svg>
