<?xml version="1.0" encoding="UTF-8"?>
<svg width="1200pt" height="1200pt" version="1.1" viewBox="0 0 1200 1200" xmlns="http://www.w3.org/2000/svg">
 <path d="m292.2 582.2c-42.852-40.648-214.2-53.75-265.7-56.801-6.9492 0-13.602 2.0508-18.648 6.75-5 4.75-7.8516 11.301-7.8516 18.203v500.05c0 13.801 11.199 25 25 25h150c10.801 0 20.398-6.9492 23.75-17.25 3.6484-11.199 89.801-325.65 101.15-455.65 0.65234-7.5547-2.1484-15.055-7.6992-20.305z"/>
 <path d="m1050 850.8-175 74.699c-48.449 2.3516-149.2-0.80078-175-0.44922-25.398 0.35156-155.25-41.301-134.9-49.551 4.25-1.75 15.102-2.1016 34.898-0.44922 114.2 9.5 300 32.5 300-50s-201.35-100-250-100-130.2-43.648-200-50c-27.75-2.5-65.852-6.3008-104.55-8.6992-15.801 107.5-61.852 263.3-85.551 339.5l265.1 119.9c99.199 37.5 166.65 85.398 375 0 0 0 300-127.35 300-200 0-60.051-68.75-103.1-150-74.949z"/>
 <path d="m1148.8 473.55h-149.45c-2.1016 72.449-12.898 140.25-31.148 200h116.75c36.797-58.699 59.547-126.85 63.848-200z"/>
 <path d="m1048.4 723.55h-98.102c-6.1484 15.148-12.949 29.352-20.051 43.148 9 12.301 15.051 26.352 17.602 42.199 37.703-23.398 71.902-51.75 100.55-85.348z"/>
 <path d="m1048.4 173.55c-45.25-53.148-103.3-94.801-169.35-120.65 27.949 32.148 52 73.199 71.25 120.65z"/>
 <path d="m999.3 423.55h149.45c-4.3008-73.199-27-141.35-63.852-200h-116.75c18.25 59.75 29.051 127.55 31.152 200z"/>
 <path d="m637.1 673.55h62.898v-200h-199.3c1.9492 59.352 10.898 115.5 24.898 166.35 16.949 4.8984 33.602 10.301 49.25 15.5 22.602 7.4961 45.551 15.047 62.254 18.148z"/>
 <path d="m700 223.55h-164.45c-20 59-32.5 127.35-34.852 200h199.3z"/>
 <path d="m891 731c1.1992-2.5508 2.5508-4.8984 3.75-7.5h-15.898c4.2969 2.3516 8.1484 4.9492 12.148 7.5z"/>
 <path d="m326.6 545.95c16.699 15.648 25.148 38 23.102 61.102-0.25 2.9492-0.75 6.3516-1.0508 9.4492 32.449 2 64.449 4.9492 90.5 7.3516l15.352 1.3984c5.0508 0.44922 10.102 1.5 15.148 2.25-10.852-47.75-17.352-99.551-18.949-153.95h-149.45c1.1992 20.199 4.0508 39.898 7.9492 59.199 6.75 4.1992 12.551 8.6016 17.402 13.199z"/>
 <path d="m750 26.449v147.05h144.75c-36.352-79.602-87.648-134.45-144.75-147.05z"/>
 <path d="m700 173.55v-147.1c-57.102 12.551-108.4 67.449-144.75 147.05h144.75z"/>
 <path d="m481.85 223.55h-116.75c-36.801 58.648-59.551 126.8-63.852 200h149.45c2.1016-72.449 12.902-140.25 31.152-200z"/>
 <path d="m570.9 52.898c-66.051 25.801-124.1 67.5-169.35 120.65h98.102c19.25-47.496 43.301-88.496 71.25-120.65z"/>
 <path d="m949.3 473.55h-199.3v200h164.45c20-59.051 32.5-127.35 34.852-200z"/>
 <path d="m914.45 223.55h-164.45v200h199.3c-2.3516-72.699-14.852-141-34.852-200z"/>
</svg>
