<?xml version="1.0" encoding="UTF-8"?>
<svg width="1200pt" height="1200pt" version="1.1" viewBox="0 0 1200 1200" xmlns="http://www.w3.org/2000/svg">
 <path d="m1118.4 303.38c-13.105-7.3906-28.68-7.332-41.688 0.19141l-117.13 67.621-74.617-43.523-0.38281-86.375 117.14-67.633c12.996-7.5117 20.855-20.977 21-36 0.14453-15.035-7.4414-28.656-20.305-36.445-89.879-54.25-201.75-54.957-292.02-1.8359-100.51 59.184-154.82 177.74-135.98 292.85l-466.09 466.09c-64.32 64.332-64.32 169.01 0 233.35 32.172 32.16 74.426 48.238 116.68 48.238 42.254 0 84.504-16.078 116.68-48.254l465.76-465.76c65.398 11.16 132.3-0.75781 190.11-34.141 89.797-51.84 144.3-148.61 142.26-252.54-0.29297-15.031-8.2969-28.434-21.402-35.84zm-150.86 236.43c-49.512 28.586-107.47 37.223-163.2 24.301l-16.211-3.7578-488.88 488.88c-40.945 40.945-107.55 40.934-148.5 0-40.945-40.945-40.945-107.55 0-148.5l489.07-489.06-3.6484-16.141c-21.492-94.992 21.551-195.52 104.68-244.46 35.184-20.723 74.531-31.055 113.91-31.055 30.098 0 60.215 6.0469 88.477 18.121l-118.81 68.605 0.69531 155.48 134.3 78.348 118.8-68.594c-8.4219 69.742-49.008 132.23-110.69 167.83z"/>
</svg>
